<svg width="32" height="32" viewBox="0 0 32 32" fill="none" xmlns="http://www.w3.org/2000/svg">
<g clip-path="url(#clip0)">
<path d="M25.5861 12.625C25.5244 12.6227 25.4621 12.6212 25.3999 12.6207C25.3989 12.6207 25.3976 12.6207 25.3963 12.6207H25.395C21.5327 12.579 18.3221 15.5848 18.1089 19.4413C18.1018 19.5599 18.0988 20.4894 18.0977 20.8111L16.8128 24.1774C16.7313 24.3906 16.76 24.6302 16.8896 24.8182C17.0189 25.0062 17.2326 25.1185 17.461 25.1185H19.0838V26.97C19.0821 27.4866 19.2914 27.9816 19.6634 28.3398C20.0341 28.6981 20.5337 28.8919 21.0489 28.8777C21.0942 28.8762 21.412 28.8729 23.0346 28.866H23.0371C23.292 28.8658 23.5181 29.0294 23.5974 29.2715V31.6198C23.5974 31.8352 23.7722 32.0101 23.9877 32.0101H30.0819C30.1894 32.0101 30.292 31.9656 30.3657 31.8876C30.4394 31.8096 30.4777 31.7044 30.4714 31.5972C30.4691 31.5557 30.2351 27.4129 30.4704 24.8848C30.5237 24.3131 31.0365 22.9464 31.2387 22.444C32.3099 20.3898 32.2487 17.929 31.0766 15.9306C29.9401 13.9544 27.8642 12.7048 25.5861 12.625ZM30.3042 16.1608H27.7202C26.652 16.1606 25.7861 15.2946 25.7858 14.2265V13.4182C27.6442 13.5562 29.3242 14.5758 30.3042 16.1608ZM22.0231 14.3024V15.1389C22.0231 16.0025 21.3228 16.7028 20.459 16.703H19.6878C20.2407 15.7106 21.0464 14.8823 22.0231 14.3024ZM18.9156 19.1463H19.9439C20.3997 19.1463 20.7694 19.516 20.7694 19.9718C20.7694 20.4279 20.3997 20.7973 19.9439 20.7973H18.8785C18.8801 20.2035 18.8839 19.565 18.8882 19.4863C18.8946 19.3719 18.9037 19.2586 18.9156 19.1463ZM21.0248 28.0974C20.7201 28.1063 20.4249 27.9912 20.2064 27.779C19.9879 27.5666 19.8644 27.2749 19.8644 26.97V24.7283C19.8644 24.5128 19.6898 24.338 19.4741 24.338H17.5865L18.6402 21.5779H19.9437C20.8307 21.5779 21.5497 20.8588 21.5497 19.9718C21.5497 19.0848 20.8307 18.3658 19.9437 18.3658H19.047C19.1166 18.0657 19.2081 17.7707 19.3201 17.4836H20.4592C21.754 17.4836 22.8036 16.4337 22.8036 15.1389V13.9081C23.5026 13.6134 24.2479 13.4444 25.0053 13.4088V14.2265C25.0053 15.7258 26.2208 16.9414 27.7202 16.9414H30.7153C31.0355 17.6698 31.2067 18.4552 31.2187 19.251L28.3833 19.9568C27.2092 18.8378 25.4502 18.597 24.0184 19.359C22.5867 20.121 21.8041 21.7146 22.0767 23.3135C22.3491 24.9125 23.6152 26.157 25.2187 26.4019C24.9573 27.3906 24.0647 28.0809 23.042 28.0855H23.0313C21.787 28.0908 21.1119 28.0949 21.0248 28.0974ZM27.7707 24.9079L26.9173 23.6497C27.4026 23.0833 27.3934 22.2454 26.8964 21.6897C26.3992 21.1337 25.5673 21.0319 24.9507 21.4511C24.334 21.8703 24.1228 22.6814 24.457 23.3481C24.7908 24.0148 25.5668 24.3314 26.2719 24.0885L27.1254 25.3467C25.717 26.0553 24.0004 25.55 23.201 24.1909C22.4019 22.832 22.7942 21.086 24.0979 20.1997C25.4016 19.3132 27.1696 19.5904 28.1394 20.8337C29.109 22.0766 28.9479 23.859 27.7707 24.9079ZM26.4431 22.9507L26.1111 22.4611C25.9896 22.2835 25.7477 22.2375 25.5696 22.3582C25.3917 22.4791 25.345 22.721 25.4649 22.8994L25.7968 23.3887C25.7937 23.3887 25.7907 23.3892 25.7876 23.3892C25.4751 23.3895 25.1991 23.1852 25.1082 22.8862C25.0172 22.5871 25.1326 22.2637 25.3923 22.0899C25.6522 21.9158 25.9952 21.9326 26.2368 22.1308C26.4787 22.329 26.5626 22.6618 26.4431 22.9507ZM25.643 29.3724C25.643 29.2217 25.765 29.0998 25.9157 29.0998C26.0661 29.0995 26.1883 29.2217 26.1883 29.3722C26.1883 29.5228 26.0663 29.6448 25.9157 29.6448C25.765 29.6448 25.643 29.5231 25.643 29.3724ZM30.5222 22.1343C30.4452 22.3246 29.7678 24.0158 29.6934 24.8129C29.4944 26.9515 29.6169 30.1039 29.671 31.2298H26.3057V30.3496C26.775 30.1626 27.0451 29.6687 26.9498 29.1727C26.8545 28.6767 26.4205 28.3182 25.9154 28.3182C25.4105 28.3182 24.9766 28.6767 24.8813 29.1727C24.786 29.6687 25.0561 30.1626 25.5251 30.3496V31.2298H24.3779V29.2172C24.3779 29.1851 24.3739 29.1531 24.366 29.1219C24.3236 28.9537 24.2496 28.7951 24.148 28.6546C25.1023 28.2763 25.8026 27.4431 26.0112 26.4377C26.5557 26.4062 27.0867 26.2558 27.567 25.9972L28.0286 26.6778V27.5598C27.5593 27.746 27.2882 28.2392 27.3825 28.7352C27.4765 29.2311 27.9097 29.5904 28.4146 29.5917C28.9194 29.5927 29.3542 29.2352 29.4505 28.7395C29.5468 28.244 29.2777 27.7496 28.8092 27.5616V26.5579C28.8092 26.4797 28.7858 26.4034 28.7421 26.3389L28.2121 25.5578C29.6695 24.3344 29.9818 22.2146 28.939 20.6228L31.1744 20.0666C31.0858 20.777 30.8703 21.4658 30.5385 22.1C30.5319 22.1112 30.5268 22.1226 30.5222 22.1343ZM28.4164 28.2656C28.567 28.2656 28.689 28.3876 28.689 28.5382C28.689 28.6887 28.567 28.8106 28.4164 28.8106C28.2659 28.8106 28.1437 28.6887 28.1437 28.5382C28.144 28.3878 28.2659 28.2661 28.4164 28.2656Z" fill="url(#paint0_linear)"/>
<path d="M28.2041 21.5156C28.1418 21.3866 28.0694 21.2626 27.9876 21.1449C27.8938 21.0103 27.7879 20.8845 27.671 20.7694C27.5717 20.6708 27.4276 20.6329 27.2927 20.67C27.158 20.7069 27.0533 20.8131 27.0183 20.9485C26.9832 21.0837 27.0231 21.2275 27.1232 21.3253C27.2058 21.4069 27.2807 21.4958 27.3473 21.5911C27.4052 21.6747 27.4568 21.7629 27.5008 21.8546C27.6588 22.1803 27.7198 22.5447 27.6766 22.9042C27.6507 23.1181 27.8034 23.3125 28.0173 23.3382C28.0331 23.3402 28.0488 23.3412 28.0643 23.3412C28.2618 23.341 28.4279 23.1934 28.4516 22.9975C28.4643 22.8915 28.4706 22.785 28.4706 22.6783C28.4709 22.2756 28.3799 21.878 28.2041 21.5156Z" fill="url(#paint1_linear)"/>
<path d="M24.4383 24.9976C24.8486 25.2365 25.3149 25.3622 25.7898 25.3625C25.8248 25.3625 25.8599 25.3617 25.8952 25.3605C26.1104 25.3521 26.2784 25.1707 26.2697 24.9552C26.2613 24.7397 26.0799 24.572 25.8647 24.5804C25.5024 24.5946 25.1436 24.5052 24.8303 24.323C24.7099 24.2516 24.5603 24.2506 24.4385 24.32C24.3168 24.3893 24.2416 24.5187 24.2416 24.6587C24.2416 24.7987 24.3168 24.9283 24.4383 24.9976Z" fill="url(#paint2_linear)"/>
<path d="M24.1989 20.5194C23.7868 20.8218 23.4702 21.2359 23.2867 21.7129C23.2331 21.8437 23.2542 21.9931 23.3421 22.1039C23.43 22.2144 23.5708 22.269 23.7103 22.2462C23.8498 22.2236 23.9662 22.1273 24.0144 21.9946C24.1445 21.6567 24.3686 21.3632 24.6606 21.149C24.8331 21.021 24.8697 20.7778 24.7426 20.6045C24.6156 20.4315 24.3727 20.3934 24.1989 20.5194Z" fill="url(#paint3_linear)"/>
<path d="M13.9037 20.8111C13.9029 20.4894 13.8999 19.5602 13.8928 19.4441C13.6811 15.5846 10.467 12.5765 6.60184 12.6207C6.53959 12.6215 6.47759 12.6227 6.41585 12.625C4.13773 12.7048 2.06187 13.9546 0.925353 15.9306C-0.246735 17.9293 -0.30797 20.3901 0.763247 22.4443C0.965498 22.9461 1.47824 24.3128 1.53134 24.885C1.76688 27.4132 1.53287 31.556 1.53033 31.5977C1.52423 31.7049 1.56259 31.8101 1.63628 31.8881C1.70996 31.9661 1.81261 32.0106 1.92009 32.0106H8.01429C8.22975 32.0106 8.40456 31.8357 8.40456 31.6203V29.272C8.48384 29.0299 8.70997 28.8663 8.96482 28.8665H8.96736C10.5899 28.8731 10.9078 28.8767 10.9528 28.8782C11.4683 28.8924 11.9676 28.6986 12.3383 28.3403C12.7105 27.9821 12.9199 27.4871 12.9179 26.9706V25.1185H14.5412C14.7694 25.1185 14.983 25.0062 15.1126 24.8182C15.2422 24.6302 15.2709 24.3906 15.1894 24.1772L13.9037 20.8111ZM12.5273 24.338C12.3119 24.338 12.1371 24.5128 12.1371 24.7283V26.97C12.1371 27.2749 12.0138 27.5666 11.7953 27.7788C11.5768 27.9912 11.2818 28.1061 10.9772 28.0974C10.89 28.0949 10.2149 28.0911 8.97066 28.0855H8.95999C7.79171 28.0809 6.81984 27.1865 6.71821 26.0228C6.70068 25.8079 6.51215 25.6481 6.29744 25.6656C6.08249 25.6831 5.92267 25.8716 5.9402 26.0863C6.0398 27.2361 6.78097 28.2306 7.85396 28.6546C7.75233 28.7951 7.67839 28.9537 7.63596 29.1219C7.62808 29.1529 7.62402 29.1849 7.62402 29.2172V31.2295H2.33069C2.38481 30.1039 2.50753 26.9512 2.30833 24.8126C2.23414 24.0158 1.5565 22.3244 1.47951 22.1343C1.47468 22.1226 1.4696 22.1112 1.46376 22.1C0.508401 20.28 0.559981 18.0959 1.59969 16.3232C2.60231 14.5792 4.43374 13.4759 6.44405 13.405C6.49919 13.403 6.55483 13.4017 6.61022 13.401C10.0612 13.3545 12.9326 16.0422 13.1135 19.4888C13.1181 19.5689 13.1221 20.2676 13.1234 20.8845C13.1237 20.9318 13.1323 20.9785 13.1491 21.0227L14.4149 24.338H12.5273Z" fill="url(#paint4_linear)"/>
<path d="M26.7148 11.2825C27.7354 11.2814 28.5627 10.4541 28.5638 9.43349V1.91159C28.5627 0.890935 27.7354 0.0638925 26.7148 0.0626221H12.5903C11.5696 0.0638925 10.7426 0.890935 10.7413 1.91159V9.43349C10.7426 10.4541 11.5696 11.2814 12.5903 11.2825H13.1574C13.1683 11.2822 13.179 11.2868 13.1863 11.2949C13.5083 13.1172 14.7037 13.6975 15.0005 13.8149C15.0658 13.8484 15.1382 13.8662 15.2117 13.8662C15.234 13.8662 15.2564 13.8645 15.2785 13.8611C15.4695 13.8314 15.6233 13.6891 15.668 13.5011C15.7015 13.3548 15.7229 13.2059 15.7315 13.0562C15.839 11.906 16.0862 11.2825 17.082 11.2825H26.7148ZM15.2053 11.4232C14.9863 11.8325 14.9017 12.2871 14.8569 12.6593C14.5642 12.3948 14.223 11.9283 14.083 11.1366C14.0012 10.6907 13.6107 10.368 13.1574 10.3718H12.59C12.0722 10.3713 11.6524 9.95156 11.6519 9.43349V1.91159C11.6524 1.39377 12.0722 0.97402 12.59 0.973258H26.7148C27.2329 0.97402 27.6526 1.39377 27.6531 1.91159V9.43349C27.6526 9.95156 27.2329 10.3713 26.7148 10.3718H17.082C16.2224 10.3718 15.5735 10.7352 15.2053 11.4232Z" fill="url(#paint5_linear)"/>
<path d="M26.3664 6.27315H22.7953C22.544 6.27315 22.34 6.47692 22.34 6.72846C22.34 6.97975 22.544 7.18378 22.7953 7.18378H26.3664C26.6177 7.18378 26.8218 6.97975 26.8218 6.72846C26.8218 6.47692 26.6177 6.27315 26.3664 6.27315Z" fill="url(#paint6_linear)"/>
<path d="M21.5641 6.72846C21.5641 6.47692 21.3603 6.27315 21.1088 6.27315H15.4806C15.229 6.27315 15.0253 6.47692 15.0253 6.72846C15.0253 6.97975 15.229 7.18378 15.4806 7.18378H21.1088C21.3603 7.18378 21.5641 6.97975 21.5641 6.72846Z" fill="url(#paint7_linear)"/>
<path d="M12.9386 7.18378H14.1671C14.4187 7.18378 14.6225 6.97975 14.6225 6.72846C14.6225 6.47692 14.4187 6.27315 14.1671 6.27315H12.9386C12.6873 6.27315 12.4833 6.47692 12.4833 6.72846C12.4833 6.97975 12.6873 7.18378 12.9386 7.18378Z" fill="url(#paint8_linear)"/>
<path d="M25.4341 5.44127H26.3666C26.6179 5.44127 26.8219 5.23749 26.8219 4.98595C26.8219 4.73466 26.6179 4.53063 26.3666 4.53063H25.4341C25.1828 4.53063 24.9788 4.73466 24.9788 4.98595C24.9788 5.23749 25.1828 5.44127 25.4341 5.44127Z" fill="url(#paint9_linear)"/>
<path d="M24.1285 5.44127C24.3801 5.44127 24.5838 5.23749 24.5838 4.98595C24.5838 4.73466 24.3801 4.53063 24.1285 4.53063H22.5674C22.3159 4.53063 22.1121 4.73466 22.1121 4.98595C22.1121 5.23749 22.3159 5.44127 22.5674 5.44127H24.1285Z" fill="url(#paint10_linear)"/>
<path d="M12.9386 5.44127H21.2515C21.503 5.44127 21.7068 5.23749 21.7068 4.98595C21.7068 4.73466 21.503 4.53063 21.2515 4.53063H12.9386C12.6873 4.53063 12.4833 4.73466 12.4833 4.98595C12.4833 5.23749 12.6873 5.44127 12.9386 5.44127Z" fill="url(#paint11_linear)"/>
<path d="M25.6127 3.3509H26.3666C26.6179 3.3509 26.8219 3.14687 26.8219 2.89558C26.8219 2.64404 26.6179 2.44026 26.3666 2.44026H25.6127C25.3612 2.44026 25.1574 2.64404 25.1574 2.89558C25.1574 3.14687 25.3612 3.3509 25.6127 3.3509Z" fill="url(#paint12_linear)"/>
<path d="M21.0604 3.3509H24.2893C24.5406 3.3509 24.7446 3.14687 24.7446 2.89558C24.7446 2.64404 24.5406 2.44026 24.2893 2.44026H21.0604C20.8089 2.44026 20.6051 2.64404 20.6051 2.89558C20.6051 3.14687 20.8089 3.3509 21.0604 3.3509Z" fill="url(#paint13_linear)"/>
<path d="M12.9386 3.3509H19.7443C19.9958 3.3509 20.1996 3.14687 20.1996 2.89558C20.1996 2.64404 19.9958 2.44026 19.7443 2.44026H12.9386C12.6873 2.44026 12.4833 2.64404 12.4833 2.89558C12.4833 3.14687 12.6873 3.3509 12.9386 3.3509Z" fill="url(#paint14_linear)"/>
<path d="M22.8847 8.01492H22.7404C22.4891 8.01492 22.285 8.21869 22.285 8.47024C22.285 8.72178 22.4891 8.92556 22.7404 8.92556H22.8847C23.1362 8.92556 23.34 8.72178 23.34 8.47024C23.34 8.21869 23.1362 8.01492 22.8847 8.01492Z" fill="url(#paint15_linear)"/>
<path d="M21.532 8.01492H18.9521C18.7005 8.01492 18.4967 8.21869 18.4967 8.47024C18.4967 8.72178 18.7005 8.92556 18.9521 8.92556H21.532C21.7836 8.92556 21.9873 8.72178 21.9873 8.47024C21.9873 8.21869 21.7836 8.01492 21.532 8.01492Z" fill="url(#paint16_linear)"/>
<path d="M17.7616 8.47024C17.7616 8.21869 17.5579 8.01492 17.3063 8.01492H12.9386C12.6873 8.01492 12.4833 8.21869 12.4833 8.47024C12.4833 8.72178 12.6873 8.92556 12.9386 8.92556H17.3063C17.5579 8.92556 17.7616 8.72178 17.7616 8.47024Z" fill="url(#paint17_linear)"/>
</g>
<defs>
<linearGradient id="paint0_linear" x1="0.000976324" y1="16.0366" x2="32.001" y2="16.0366" gradientUnits="userSpaceOnUse">
<stop stop-color="#A032C3"/>
<stop offset="1" stop-color="#436DE6"/>
</linearGradient>
<linearGradient id="paint1_linear" x1="0.000976324" y1="16.0366" x2="32.001" y2="16.0366" gradientUnits="userSpaceOnUse">
<stop stop-color="#A032C3"/>
<stop offset="1" stop-color="#436DE6"/>
</linearGradient>
<linearGradient id="paint2_linear" x1="0.000976324" y1="16.0366" x2="32.001" y2="16.0366" gradientUnits="userSpaceOnUse">
<stop stop-color="#A032C3"/>
<stop offset="1" stop-color="#436DE6"/>
</linearGradient>
<linearGradient id="paint3_linear" x1="0.000976324" y1="16.0366" x2="32.001" y2="16.0366" gradientUnits="userSpaceOnUse">
<stop stop-color="#A032C3"/>
<stop offset="1" stop-color="#436DE6"/>
</linearGradient>
<linearGradient id="paint4_linear" x1="0.000976324" y1="16.0366" x2="32.001" y2="16.0366" gradientUnits="userSpaceOnUse">
<stop stop-color="#A032C3"/>
<stop offset="1" stop-color="#436DE6"/>
</linearGradient>
<linearGradient id="paint5_linear" x1="0.000976324" y1="16.0366" x2="32.001" y2="16.0366" gradientUnits="userSpaceOnUse">
<stop stop-color="#A032C3"/>
<stop offset="1" stop-color="#436DE6"/>
</linearGradient>
<linearGradient id="paint6_linear" x1="0.000976324" y1="16.0366" x2="32.001" y2="16.0366" gradientUnits="userSpaceOnUse">
<stop stop-color="#A032C3"/>
<stop offset="1" stop-color="#436DE6"/>
</linearGradient>
<linearGradient id="paint7_linear" x1="0.000976324" y1="16.0366" x2="32.001" y2="16.0366" gradientUnits="userSpaceOnUse">
<stop stop-color="#A032C3"/>
<stop offset="1" stop-color="#436DE6"/>
</linearGradient>
<linearGradient id="paint8_linear" x1="0.000976324" y1="16.0366" x2="32.001" y2="16.0366" gradientUnits="userSpaceOnUse">
<stop stop-color="#A032C3"/>
<stop offset="1" stop-color="#436DE6"/>
</linearGradient>
<linearGradient id="paint9_linear" x1="0.000976324" y1="16.0366" x2="32.001" y2="16.0366" gradientUnits="userSpaceOnUse">
<stop stop-color="#A032C3"/>
<stop offset="1" stop-color="#436DE6"/>
</linearGradient>
<linearGradient id="paint10_linear" x1="0.000976324" y1="16.0366" x2="32.001" y2="16.0366" gradientUnits="userSpaceOnUse">
<stop stop-color="#A032C3"/>
<stop offset="1" stop-color="#436DE6"/>
</linearGradient>
<linearGradient id="paint11_linear" x1="0.000976324" y1="16.0366" x2="32.001" y2="16.0366" gradientUnits="userSpaceOnUse">
<stop stop-color="#A032C3"/>
<stop offset="1" stop-color="#436DE6"/>
</linearGradient>
<linearGradient id="paint12_linear" x1="0.000976324" y1="16.0366" x2="32.001" y2="16.0366" gradientUnits="userSpaceOnUse">
<stop stop-color="#A032C3"/>
<stop offset="1" stop-color="#436DE6"/>
</linearGradient>
<linearGradient id="paint13_linear" x1="0.000976324" y1="16.0366" x2="32.001" y2="16.0366" gradientUnits="userSpaceOnUse">
<stop stop-color="#A032C3"/>
<stop offset="1" stop-color="#436DE6"/>
</linearGradient>
<linearGradient id="paint14_linear" x1="0.000976324" y1="16.0366" x2="32.001" y2="16.0366" gradientUnits="userSpaceOnUse">
<stop stop-color="#A032C3"/>
<stop offset="1" stop-color="#436DE6"/>
</linearGradient>
<linearGradient id="paint15_linear" x1="0.000976324" y1="16.0366" x2="32.001" y2="16.0366" gradientUnits="userSpaceOnUse">
<stop stop-color="#A032C3"/>
<stop offset="1" stop-color="#436DE6"/>
</linearGradient>
<linearGradient id="paint16_linear" x1="0.000976324" y1="16.0366" x2="32.001" y2="16.0366" gradientUnits="userSpaceOnUse">
<stop stop-color="#A032C3"/>
<stop offset="1" stop-color="#436DE6"/>
</linearGradient>
<linearGradient id="paint17_linear" x1="0.000976324" y1="16.0366" x2="32.001" y2="16.0366" gradientUnits="userSpaceOnUse">
<stop stop-color="#A032C3"/>
<stop offset="1" stop-color="#436DE6"/>
</linearGradient>
<clipPath id="clip0">
<rect width="32" height="32" fill="white" transform="translate(0.000976562)"/>
</clipPath>
</defs>
</svg>
