<svg width="32" height="32" viewBox="0 0 32 32" fill="none" xmlns="http://www.w3.org/2000/svg">
<g clip-path="url(#clip0)">
<path d="M21.6424 13.5919C21.6342 13.4831 21.5828 13.3822 21.4997 13.3117C21.4165 13.2415 21.3085 13.2074 21.1999 13.2172L20.4705 13.2834L20.0775 12.4539C20.0251 12.3438 19.9261 12.2627 19.8077 12.2333C19.5979 12.1814 19.3908 12.1181 19.1877 12.0442C19.0728 12.0024 18.9454 12.0146 18.8405 12.0771L18.0545 12.5448L15.8434 10.7188L16.1578 9.86071C16.2004 9.74445 16.188 9.61547 16.1239 9.50954C16.0116 9.32469 15.9102 9.13322 15.8201 8.93645C15.7687 8.82442 15.6694 8.7418 15.5503 8.71161L14.6591 8.48544L14.4377 6.04609C14.4202 5.85514 14.2719 5.70207 14.0815 5.67903C13.7619 5.6401 13.4401 5.61918 13.1178 5.61627C13.0908 5.61627 13.064 5.61574 13.0365 5.61574C9.47928 5.61627 6.28648 7.79927 4.99596 11.1144C3.70517 14.4293 4.5807 18.1965 7.2012 20.6022C8.30767 21.629 8.93452 23.0715 8.93002 24.581V28.6859C8.93108 29.6086 9.67896 30.3565 10.6019 30.3575H12.6302V31.5932C12.6302 31.8178 12.8124 32 13.037 32C13.2619 32 13.4438 31.8178 13.4438 31.5932V30.3578H15.4724C16.3953 30.3567 17.1432 29.6089 17.1443 28.6859V24.575C17.1551 23.049 17.7976 21.5956 18.9186 20.5604C20.728 18.8732 21.7274 16.4913 21.6639 14.018C21.6602 13.8769 21.653 13.7333 21.6424 13.5919ZM15.4724 29.5442H10.6022C10.1284 29.5437 9.74437 29.16 9.74384 28.6862V28.5493H14.0802C14.3048 28.5493 14.487 28.3671 14.487 28.1425C14.487 27.9176 14.3048 27.7357 14.0802 27.7357H9.74384V26.7399H10.7912C11.0161 26.7399 11.198 26.5577 11.198 26.3332C11.198 26.1083 11.0161 25.9264 10.7912 25.9264H9.74384V24.9881H16.3307V25.9264H12.1003C11.8755 25.9264 11.6935 26.1083 11.6935 26.3332C11.6935 26.5577 11.8755 26.7399 12.1003 26.7399H16.3307V27.7357H15.3895C15.1649 27.7357 14.9827 27.9176 14.9827 28.1425C14.9827 28.3671 15.1649 28.5493 15.3895 28.5493H16.3307V28.6862C16.3299 29.16 15.9462 29.5437 15.4724 29.5442ZM13.0651 14.5101C12.8538 14.5109 12.6512 14.4269 12.5023 14.2773C12.234 14.0087 12.1927 13.5885 12.4035 13.2728C12.6143 12.9574 13.0185 12.8348 13.3691 12.9799C13.7197 13.125 13.9189 13.4976 13.845 13.8697C13.7709 14.2421 13.4443 14.5101 13.0651 14.5101ZM18.3643 19.9651C17.1816 21.0615 16.46 22.566 16.345 24.1745H15.0161V21.7781C15.0166 21.3265 15.3824 20.9608 15.8336 20.9603C16.7343 20.9592 17.4639 20.2294 17.4647 19.3289V19.1136C18.251 18.9089 18.7627 18.1518 18.6596 17.3459C18.5564 16.54 17.8704 15.9362 17.0579 15.9362C16.2454 15.9362 15.5595 16.54 15.4565 17.3459C15.3532 18.1518 15.8649 18.9089 16.6512 19.1136V19.3289C16.6506 19.7802 16.2849 20.1459 15.8334 20.1465C14.9329 20.1475 14.2033 20.8774 14.2023 21.7778V24.1743H13.4719V15.2717C14.2542 15.0673 14.7629 14.3133 14.6596 13.5111C14.5566 12.709 13.8736 12.1083 13.0651 12.1083C12.2563 12.1083 11.5736 12.709 11.4703 13.5111C11.3673 14.3133 11.8757 15.0673 12.6583 15.2717V24.1745H11.9279V21.7781C11.9268 20.8774 11.197 20.1475 10.2963 20.1467C9.84501 20.1462 9.47928 19.7805 9.47875 19.3289V19.1136C10.265 18.9089 10.7767 18.152 10.6737 17.3461C10.5704 16.5403 9.88447 15.9365 9.07197 15.9365C8.25947 15.9365 7.57355 16.5403 7.47054 17.3461C7.36725 18.152 7.8789 18.9089 8.66519 19.1136V19.3289C8.66625 20.2294 9.39585 20.959 10.2963 20.96C10.7478 20.9606 11.1135 21.3263 11.1141 21.7778V24.1743H9.73007C9.63102 22.5813 8.9226 21.0877 7.75152 20.0032C5.37811 17.8242 4.5852 14.4121 5.75417 11.4097C6.92313 8.40732 9.81482 6.42983 13.0367 6.42956C13.0611 6.42956 13.0857 6.42956 13.1104 6.43009C13.2926 6.43168 13.4756 6.43963 13.6572 6.45419L13.8747 8.84588C13.8903 9.01749 14.0126 9.16076 14.1798 9.20313L15.1649 9.4534C15.2166 9.55721 15.2709 9.65997 15.3281 9.76087L14.9803 10.7095C14.921 10.8713 14.9703 11.0532 15.1035 11.1629L17.7574 13.3546C17.89 13.4643 18.077 13.4786 18.2245 13.3906L19.094 12.8729C19.2023 12.9092 19.3127 12.9425 19.4234 12.9735L19.8572 13.8888C19.9303 14.0426 20.0918 14.1345 20.2616 14.1192L20.8514 14.0657C20.9012 16.2966 19.9965 18.4431 18.3643 19.9651ZM16.4954 18.1216C16.1848 17.8109 16.1848 17.3072 16.4954 16.9968C16.8061 16.6862 17.3098 16.6862 17.6204 16.9968C17.9311 17.3072 17.9311 17.8109 17.6204 18.1216C17.3095 18.4317 16.8063 18.4317 16.4954 18.1216ZM8.50973 18.1216C8.19908 17.8109 8.19908 17.3072 8.50973 16.9968C8.82038 16.6862 9.32382 16.6862 9.63447 16.9968C9.94511 17.3072 9.94511 17.8109 9.63447 18.1216C9.32382 18.4317 8.82038 18.4317 8.50973 18.1216Z" fill="url(#paint0_linear)"/>
<path d="M22.4631 2.81593C20.742 2.24204 18.8553 2.96371 17.9568 4.53945C17.0579 6.11545 17.3977 8.10671 18.7682 9.29553C20.1384 10.4846 22.1578 10.5397 23.591 9.42768C25.0246 8.31566 25.4727 6.34585 24.6615 4.72324C24.2129 3.81937 23.4213 3.1324 22.4631 2.81593ZM24.0955 7.36916C23.6445 8.72191 22.3005 9.56751 20.8855 9.38875C19.4708 9.21025 18.3792 8.05692 18.2785 6.63452C18.1776 5.21211 19.0955 3.91657 20.4711 3.53998C21.8466 3.16365 23.2963 3.81143 23.934 5.08685C24.2881 5.79606 24.3461 6.61704 24.0955 7.36916Z" fill="url(#paint1_linear)"/>
<path d="M27.5241 4.95791C27.5084 4.78604 27.3861 4.64276 27.219 4.60039L26.4878 4.41475C26.3302 3.99367 26.1186 3.59457 25.858 3.22778L26.1165 2.5228C26.1761 2.36072 26.1265 2.17878 25.9936 2.06914L24.6499 0.959502C24.5172 0.850127 24.3302 0.835826 24.1827 0.92375L23.541 1.30564C23.1303 1.12582 22.6996 0.994459 22.2582 0.91448L21.9351 0.232542C21.8617 0.0786753 21.7004 -0.0134857 21.5307 0.00160964L19.7945 0.159184C19.6226 0.174809 19.4793 0.29716 19.4369 0.464269L19.2513 1.1952C18.8299 1.35278 18.4309 1.56464 18.0641 1.82497L17.3591 1.56676C17.197 1.50717 17.0151 1.55643 16.9052 1.68964L15.7958 3.03339C15.6864 3.16607 15.6721 3.35278 15.76 3.50055L16.1419 4.14224C15.9621 4.55299 15.8307 4.9836 15.7508 5.42507L15.0691 5.74817C14.915 5.821 14.8228 5.98254 14.8382 6.1523L14.9957 7.88879C15.0114 8.06067 15.1337 8.20394 15.3008 8.24631L16.0318 8.43196C16.1893 8.85331 16.4009 9.25241 16.6615 9.61893L16.403 10.3242C16.3437 10.486 16.393 10.6679 16.5262 10.7778L17.8699 11.8875C18.0024 11.9968 18.1893 12.0111 18.3371 11.9232L18.9785 11.5413C19.3895 11.7212 19.8199 11.8522 20.2614 11.9322L20.5844 12.6142C20.6517 12.7561 20.7947 12.8464 20.952 12.8467C20.9642 12.8467 20.9764 12.8462 20.9888 12.8451L22.7251 12.6875C22.8969 12.6719 23.0402 12.5495 23.0829 12.3824L23.2682 11.6512C23.6896 11.4937 24.0887 11.2821 24.4552 11.0217L25.1604 11.2799C25.3223 11.3393 25.5042 11.29 25.6141 11.1571L26.7232 9.81332C26.8326 9.68064 26.8471 9.49393 26.7592 9.34616L26.3773 8.70474C26.5574 8.29372 26.6888 7.8631 26.7685 7.4219L27.4504 7.09854C27.6046 7.02571 27.6967 6.86416 27.6814 6.69441L27.5241 4.95791ZM26.2272 6.77809C26.1038 6.83662 26.018 6.95341 25.9986 7.08874C25.9266 7.59642 25.7762 8.0898 25.5524 8.5514C25.4928 8.67455 25.4992 8.81914 25.5691 8.93673L25.9139 9.51618L25.1697 10.4171L24.5291 10.1822C24.3975 10.134 24.2502 10.1571 24.1395 10.2434C23.738 10.5556 23.2854 10.7958 22.8016 10.9531C22.6689 10.9963 22.5678 11.1046 22.5333 11.24L22.3649 11.9034L21.1978 12.009L20.9049 11.3906C20.8464 11.2672 20.7296 11.1814 20.5942 11.1621C20.0866 11.0903 19.5929 10.9396 19.1316 10.7159C19.0084 10.6563 18.8636 10.6624 18.746 10.7325L18.1668 11.0774L17.2659 10.3334L17.5008 9.69282C17.549 9.56093 17.5259 9.41369 17.4399 9.30299C17.1274 8.90177 16.8872 8.44917 16.7298 7.96533C16.6867 7.83265 16.5784 7.73148 16.4433 7.69706L15.7796 7.52862L15.6737 6.36152L16.2921 6.06861C16.4155 6.01009 16.5016 5.89329 16.5206 5.75823C16.5927 5.25029 16.7434 4.75691 16.9674 4.29531C17.027 4.17216 17.0209 4.0273 16.9507 3.90998L16.6059 3.33053L17.3498 2.42958L17.9904 2.66448C18.1223 2.71268 18.2696 2.68964 18.3803 2.6033C18.7817 2.29107 19.2343 2.05087 19.7179 1.89356C19.8506 1.85039 19.952 1.74208 19.9862 1.60675L20.1546 0.943347L21.3217 0.837415L21.6149 1.45579C21.6734 1.57921 21.79 1.66528 21.9253 1.68434C22.433 1.75638 22.9263 1.90707 23.3877 2.13085C23.5108 2.19043 23.6557 2.18434 23.773 2.11416L24.3524 1.76935L25.2534 2.51326L25.0185 3.15389C24.9703 3.28577 24.9933 3.43302 25.0794 3.54372C25.3919 3.9452 25.6321 4.3978 25.7894 4.88138C25.8326 5.01406 25.9409 5.11549 26.0762 5.14965L26.7396 5.31808L26.8456 6.48519L26.2272 6.77809Z" fill="url(#paint2_linear)"/>
</g>
<defs>
<linearGradient id="paint0_linear" x1="4.40747" y1="16" x2="27.683" y2="16" gradientUnits="userSpaceOnUse">
<stop stop-color="#A032C3"/>
<stop offset="1" stop-color="#436DE6"/>
</linearGradient>
<linearGradient id="paint1_linear" x1="4.40747" y1="16" x2="27.683" y2="16" gradientUnits="userSpaceOnUse">
<stop stop-color="#A032C3"/>
<stop offset="1" stop-color="#436DE6"/>
</linearGradient>
<linearGradient id="paint2_linear" x1="4.40747" y1="16" x2="27.683" y2="16" gradientUnits="userSpaceOnUse">
<stop stop-color="#A032C3"/>
<stop offset="1" stop-color="#436DE6"/>
</linearGradient>
<clipPath id="clip0">
<rect width="32" height="32" fill="white" transform="translate(0.000976562)"/>
</clipPath>
</defs>
</svg>
