<svg width="32" height="32" viewBox="0 0 32 32" fill="none" xmlns="http://www.w3.org/2000/svg">
<path d="M29.91 18.0969C28.3333 17.4498 26.5216 18.0837 25.692 19.5728L24.1872 18.9534C24.8772 17.0329 24.8732 14.9315 24.1755 13.0138L25.6768 12.3885C26.5465 13.9444 28.4786 14.5521 30.0823 13.7744C31.686 12.9965 32.405 11.1032 31.7218 9.45683C31.0384 7.81072 29.1898 6.98272 27.5066 7.56936C25.8236 8.156 24.8897 9.95327 25.3775 11.6677L23.8752 12.2935C23.0012 10.4505 21.5136 8.96876 19.6671 8.10239L20.2867 6.5973C21.5271 6.94638 22.8582 6.55588 23.7128 5.59144C24.5678 4.62726 24.7959 3.2591 24.3005 2.06956C23.7342 0.709538 22.3485 -0.123294 20.8818 0.0149183C19.415 0.153385 18.2095 1.23038 17.9074 2.67221C17.6053 4.11404 18.2773 5.58458 19.5652 6.30004L18.9455 7.80462C17.025 7.11483 14.9236 7.1189 13.0059 7.81657L12.3804 6.31452C13.9386 5.44154 14.5458 3.50453 13.7646 1.89807C12.9833 0.291852 11.0847 -0.426651 9.43579 0.260347C7.7869 0.947092 6.95965 2.80077 7.54985 4.48676C8.14005 6.17275 9.94266 7.10594 11.6599 6.61457L12.2857 8.11713C10.4427 8.99086 8.96094 10.4787 8.09457 12.3252L6.58948 11.7056C7.0689 9.99367 6.13063 8.20504 4.44998 7.62652C2.76907 7.04801 0.928608 7.88059 0.253298 9.52491C-0.422013 11.1692 0.301825 13.0549 1.90397 13.825C3.50637 14.5948 5.43093 13.982 6.29298 12.4274L7.79681 13.0465C7.10701 14.967 7.11108 17.0684 7.80875 18.9861L6.3067 19.6116C5.43576 18.0588 3.50485 17.4544 1.90372 18.2333C0.302841 19.0126 -0.412866 20.9051 0.271845 22.5487C0.95681 24.1922 2.80439 25.0169 4.48504 24.4288C6.1657 23.8409 7.09609 22.0441 6.60676 20.3322L8.10931 19.7064C8.9833 21.5494 10.4709 23.0309 12.3174 23.8973L11.6978 25.4026C9.98356 24.9204 8.19086 25.8584 7.60981 27.5416C7.02876 29.2245 7.86083 31.0688 9.50719 31.7469C11.1538 32.425 13.0433 31.7014 13.8159 30.0973C14.5885 28.4931 13.9762 26.5645 12.4196 25.6999L13.0387 24.195C14.9592 24.8851 17.0606 24.881 18.9783 24.1833L19.6038 25.6854C18.051 26.5563 17.4465 28.4872 18.2255 30.0881C19.0047 31.6892 20.8973 32.405 22.5408 31.7202C24.1844 31.0353 25.0091 29.1877 24.4209 27.507C23.833 25.8264 22.0363 24.8957 20.3243 25.3851L19.6986 23.8828C21.5416 23.0088 23.023 21.5212 23.8894 19.6747L25.3948 20.2943C24.9057 22.0324 25.8772 23.8464 27.5952 24.4026C29.313 24.9587 31.1634 24.0581 31.7856 22.3632C32.4078 20.6681 31.5798 18.7844 29.91 18.0969ZM27.6166 8.36154C28.9316 7.81352 30.4423 8.43522 30.9911 9.75002C31.5399 11.0651 30.9192 12.576 29.6044 13.1256C28.2899 13.6751 26.7787 13.0552 26.2284 11.7409C26.2276 11.7394 26.2273 11.7381 26.2268 11.7368C26.2263 11.7353 26.2253 11.734 26.2248 11.7325C25.6814 10.4175 26.3036 8.91033 27.6166 8.36154ZM18.8149 4.35464C18.3414 3.21795 18.7367 1.90493 19.759 1.21894C20.7817 0.532708 22.1463 0.664315 23.0187 1.53322C23.8912 2.40214 24.0284 3.76648 23.3465 4.79164C22.6643 5.8168 21.3531 6.21747 20.2146 5.74871C19.5804 5.48956 19.0766 4.98753 18.8149 4.35464ZM8.35398 4.37548C7.80595 3.06017 8.42766 1.54974 9.74245 1.00095C11.0575 0.452168 12.5684 1.07285 13.118 2.38765C13.6675 3.7022 13.0476 5.21365 11.7331 5.7637C11.7315 5.76421 11.7303 5.76472 11.729 5.76523C11.7275 5.76573 11.7262 5.7665 11.7249 5.76726C10.4096 6.31071 8.90276 5.6885 8.35398 4.37548ZM4.34683 13.1771C3.21013 13.6507 1.89711 13.2554 1.21113 12.2328C0.524896 11.2104 0.656502 9.84555 1.52541 8.97333C2.39432 8.10087 3.75866 7.96367 4.78382 8.64559C5.80898 9.32776 6.20965 10.639 5.74089 11.7775C5.48175 12.4114 4.97971 12.9154 4.34683 13.1771ZM4.36766 23.6381C3.05236 24.1861 1.54167 23.5644 0.993142 22.2494C0.444357 20.9341 1.0653 19.4231 2.38009 18.8738C3.69489 18.3245 5.20634 18.9447 5.75614 20.2593C5.75665 20.2605 5.7569 20.2618 5.75741 20.2628C5.75792 20.2641 5.75842 20.2649 5.75893 20.2659C6.3034 21.5814 5.68119 23.0891 4.36766 23.6381ZM13.1693 27.6453C13.6452 28.7847 13.2498 30.1016 12.2249 30.7901C11.1998 31.4786 9.83112 31.347 8.95637 30.4758C8.08136 29.6044 7.94417 28.2362 8.62862 27.2085C9.31308 26.1808 10.6284 25.7799 11.7697 26.2512C12.4036 26.5103 12.9076 27.0124 13.1693 27.6453ZM23.6303 27.6244C24.178 28.9395 23.5566 30.4502 22.2415 30.9989C20.9267 31.5477 19.4158 30.927 18.8663 29.6122C18.3167 28.2977 18.9366 26.7865 20.2509 26.2362C20.2522 26.2357 20.2537 26.2352 20.255 26.2347C20.2565 26.2342 20.2578 26.2331 20.2593 26.2326C21.5744 25.6872 23.083 26.3099 23.6303 27.6244ZM19.0413 23.3213C17.0992 24.1277 14.9168 24.132 12.9716 23.333C11.0303 22.5266 9.48508 20.9877 8.6708 19.0499C7.86439 17.1078 7.86007 14.9251 8.65911 12.98C9.46552 11.0386 11.0047 9.49341 12.9427 8.67912C14.8848 7.87246 17.0672 7.8684 19.0123 8.66744C20.9537 9.47385 22.4987 11.0127 23.3132 12.9505C24.1196 14.8926 24.1239 17.075 23.3249 19.0204C22.5185 20.9615 20.9793 22.507 19.0413 23.3213ZM31.0165 22.1881C30.5478 23.3266 29.3397 23.9755 28.1316 23.7377C26.9235 23.4999 26.0513 22.4417 26.049 21.2102C26.0464 19.979 26.9141 18.9173 28.1214 18.6746C29.3287 18.432 30.5391 19.0758 31.0127 20.2125C31.2777 20.8441 31.2792 21.5555 31.0165 22.1881Z" fill="url(#paint0_linear)"/>
<path d="M21.3347 14.4482C20.6284 14.4492 20.0113 14.9261 19.8327 15.6095H16.9343L18.9851 13.5587C19.6584 13.9543 20.5209 13.7879 20.9986 13.17C21.4762 12.5523 21.4206 11.6758 20.8682 11.1235C20.3162 10.5714 19.4396 10.5155 18.822 10.9934C18.2041 11.471 18.0377 12.3333 18.4333 13.0069L16.3822 15.0577V12.159C17.138 11.9626 17.6302 11.2353 17.5313 10.4606C17.4322 9.68595 16.7729 9.10566 15.9919 9.10566C15.2112 9.10566 14.5519 9.68595 14.4528 10.4606C14.354 11.2353 14.8461 11.9626 15.6017 12.159V15.0577L13.5509 13.0069C13.9472 12.3326 13.7808 11.469 13.1621 10.9906C12.5437 10.5119 11.6659 10.5678 11.1128 11.1207C10.56 11.6738 10.5041 12.5516 10.9827 13.17C11.4611 13.7886 12.3247 13.955 12.999 13.5587L15.0499 15.6095H12.1512C11.9548 14.8539 11.2274 14.3618 10.4528 14.4606C9.6781 14.5597 9.09781 15.219 9.09781 15.9998C9.09781 16.7808 9.6781 17.4401 10.4528 17.5392C11.2274 17.638 11.9548 17.1459 12.1512 16.39H15.0499L12.999 18.4411C12.3255 18.0455 11.4632 18.2119 10.9855 18.8298C10.5076 19.4475 10.5635 20.324 11.1156 20.8761C11.668 21.4284 12.5445 21.4841 13.1621 21.0064C13.78 20.5288 13.9464 19.6662 13.5509 18.9929L15.6017 16.9421V19.8405C14.8461 20.0372 14.354 20.7646 14.4528 21.5392C14.5519 22.3139 15.2112 22.8942 15.9919 22.8942C16.7729 22.8942 17.4322 22.3139 17.5313 21.5392C17.6302 20.7646 17.138 20.0372 16.3822 19.8405V16.9421L18.4333 18.9929C18.0377 19.6665 18.2041 20.5288 18.8217 21.0067C19.4396 21.4846 20.3162 21.4287 20.8685 20.8766C21.4206 20.3243 21.4765 19.4477 20.9988 18.8298C20.5209 18.2122 19.6586 18.0455 18.9851 18.4411L16.9343 16.39H19.8327C20.0354 17.1703 20.8019 17.6654 21.5964 17.5295C22.3909 17.3936 22.9491 16.6718 22.881 15.8687C22.8126 15.0656 22.1409 14.4482 21.3347 14.4482ZM19.2247 11.6768C19.5258 11.3755 20.0141 11.3755 20.3151 11.6768C20.6165 11.9779 20.6165 12.4662 20.3151 12.7673C20.0141 13.0686 19.5258 13.0686 19.2247 12.7673C19.0786 12.6235 18.9965 12.4271 18.9965 12.2221C18.9965 12.017 19.0786 11.8206 19.2247 11.6768ZM15.2208 10.6573C15.2208 10.2312 15.5661 9.8859 15.9919 9.8859C16.418 9.8859 16.7633 10.2312 16.7633 10.6573C16.7633 11.0831 16.418 11.4283 15.9919 11.4283C15.5664 11.4278 15.2213 11.0828 15.2208 10.6573ZM11.669 12.7673C11.3677 12.4662 11.3677 11.9779 11.669 11.6768C11.97 11.3755 12.4584 11.3755 12.7594 11.6768C13.0608 11.9779 13.0608 12.4662 12.7594 12.7673C12.6156 12.9134 12.4192 12.9954 12.2142 12.9954C12.0092 12.9954 11.8128 12.9134 11.669 12.7673ZM10.6494 16.7711C10.2233 16.7711 9.87806 16.4259 9.87806 15.9998C9.87806 15.574 10.2233 15.2287 10.6494 15.2287C11.0752 15.2287 11.4205 15.574 11.4205 15.9998C11.42 16.4256 11.075 16.7706 10.6494 16.7711ZM12.7594 20.323C12.4584 20.6238 11.9703 20.6238 11.6695 20.3227C11.3684 20.0217 11.3684 19.5339 11.6695 19.2328C11.9703 18.9317 12.4584 18.9315 12.7594 19.2325C12.9055 19.3763 12.9876 19.5727 12.9876 19.7778C12.9876 19.9828 12.9055 20.1792 12.7594 20.323ZM16.7633 21.3426C16.7633 21.7684 16.418 22.1137 15.9919 22.1137C15.5661 22.1137 15.2208 21.7684 15.2208 21.3426C15.2208 20.9167 15.5661 20.5715 15.9919 20.5715C16.4177 20.5717 16.7628 20.9167 16.7633 21.3426ZM20.3151 19.2325C20.5758 19.4927 20.6165 19.9007 20.4119 20.2071C20.2077 20.5135 19.8151 20.633 19.4749 20.4922C19.1345 20.3514 18.9411 19.9897 19.0128 19.6284C19.0844 19.2671 19.4015 19.0069 19.7699 19.0069C19.9744 19.0062 20.1708 19.0875 20.3151 19.2325ZM21.3347 16.7711C20.9089 16.7711 20.5636 16.4259 20.5636 15.9998C20.5636 15.574 20.9089 15.2287 21.3347 15.2287C21.7605 15.2287 22.1058 15.574 22.1058 15.9998C22.1056 16.4256 21.7605 16.7706 21.3347 16.7711Z" fill="url(#paint1_linear)"/>
<defs>
<linearGradient id="paint0_linear" x1="0.000976324" y1="16.0005" x2="31.9922" y2="16.0005" gradientUnits="userSpaceOnUse">
<stop stop-color="#A032C3"/>
<stop offset="1" stop-color="#436DE6"/>
</linearGradient>
<linearGradient id="paint1_linear" x1="0.000976324" y1="16.0005" x2="31.9922" y2="16.0005" gradientUnits="userSpaceOnUse">
<stop stop-color="#A032C3"/>
<stop offset="1" stop-color="#436DE6"/>
</linearGradient>
</defs>
</svg>
