<svg width="123" height="36" viewBox="0 0 123 36" fill="none" xmlns="http://www.w3.org/2000/svg">
<path fill-rule="evenodd" clip-rule="evenodd" d="M96.0346 13.5475C95.9983 13.6424 95.9859 17.8571 96.0072 22.9136L96.0456 32.1071L98.382 32.1479L100.718 32.1888V22.859C100.718 14.329 100.697 13.5213 100.474 13.4354C100.021 13.2619 96.106 13.3608 96.0346 13.5475ZM50.653 16.6628C50.1635 16.7671 49.5471 16.9661 49.2832 17.1051C48.5599 17.4865 47.7693 18.3457 47.4444 19.1033C46.9188 20.3288 46.7132 24.6196 47.0181 27.9994C47.1901 29.9078 47.6254 30.8304 48.689 31.5408C49.6209 32.1635 50.7202 32.3743 52.6429 32.2998C54.474 32.2286 55.4075 31.8992 56.2615 31.0229C57.449 29.8046 57.7884 27.8834 57.6552 23.136C57.5668 19.9832 57.4735 19.4793 56.8073 18.5601C55.6167 16.9173 53.102 16.1419 50.653 16.6628ZM61.2191 16.66C60.458 16.8967 59.6416 17.5799 59.3841 18.1961C59.2113 18.6093 59.1726 19.7526 59.179 24.2411C59.1843 27.9702 59.242 29.9392 59.3558 30.2746C59.6155 31.0404 60.0315 31.5515 60.7259 31.9582C61.2436 32.2616 61.5556 32.3296 62.4296 32.3296C63.6326 32.3296 64.1404 32.1316 64.7278 31.4338L65.1163 30.9723V32.6186V34.2648L67.4527 34.2239L69.7891 34.1831L69.8189 25.4714L69.8486 16.7598H67.5567H65.2647V17.1925C65.2647 18.0353 65.1293 18.1193 64.65 17.5737C64.179 17.0375 62.8706 16.4551 62.181 16.4746C61.9598 16.4809 61.5269 16.5643 61.2191 16.66ZM87.5159 16.6621C86.3743 16.9325 85.7309 17.2361 85.0698 17.8163C84.2269 18.5561 83.9354 19.35 83.8431 21.1573L83.7648 22.6911H85.937H88.1093L88.1114 21.3195C88.1137 19.6377 88.19 19.3297 88.6307 19.2192C89.4402 19.0161 89.6286 19.3696 89.6399 21.1127C89.6469 22.2117 89.6215 22.3106 89.2558 22.602C89.0403 22.7737 88.0768 23.2424 87.1145 23.6436C83.9121 24.9784 83.8816 25.0205 83.8816 28.1035C83.8816 30.0547 83.9189 30.4005 84.186 30.9209C84.6267 31.78 85.749 32.3297 87.0604 32.329C88.1489 32.3284 88.7759 32.0448 89.4754 31.2369L89.8774 30.7726L89.8833 31.4809L89.8894 32.1891L92.0774 32.1482L94.2655 32.1071L94.2563 26.2499C94.2511 23.0285 94.1977 20.0809 94.1376 19.6997C93.9305 18.3875 92.8639 17.2463 91.4535 16.8276C90.3914 16.5123 88.4862 16.4322 87.5159 16.6621ZM116.072 16.6727C113.769 17.1395 112.923 18.2008 112.862 20.6964C112.8 23.2459 113.323 23.9358 116.837 25.9411C117.585 26.3675 118.314 26.846 118.457 27.0044C118.773 27.3535 118.907 28.6772 118.684 29.2527C118.548 29.6044 118.444 29.6605 117.926 29.6605C117.184 29.6605 117.036 29.3652 117.036 27.8799V26.86L115.145 26.8144C114.104 26.7894 113.18 26.8189 113.09 26.8798C112.933 26.9866 112.938 27.4507 113.114 29.1423C113.227 30.223 113.713 30.9842 114.649 31.5447C115.711 32.1801 116.772 32.3791 118.665 32.2978C119.974 32.2416 120.348 32.1682 120.985 31.8426C122.498 31.069 122.979 30.1231 122.999 27.8779C123.022 25.3134 122.565 24.6766 119.584 23.12C118.742 22.6802 117.824 22.1004 117.545 21.8314C117.081 21.3858 117.036 21.2672 117.038 20.4968C117.041 19.5192 117.124 19.3384 117.631 19.2117C118.357 19.0297 118.603 19.4842 118.651 21.0971L118.668 21.6531H120.688H122.708L122.648 20.275C122.594 19.0362 122.543 18.8341 122.148 18.2776C121.593 17.496 120.395 16.8476 119.101 16.6284C117.911 16.4272 117.234 16.4371 116.072 16.6727ZM71.495 23.1831C71.495 30.3359 71.5346 30.6941 72.4182 31.546C73.0571 32.1621 73.5414 32.3296 74.6844 32.3296C75.8429 32.3296 76.2061 32.1986 76.976 31.5033L77.577 30.9605V31.5709V32.1813H79.8763H82.1756V24.4705V16.7598H79.8763H77.577L77.5748 23.0248C77.5735 26.4706 77.5235 29.3623 77.4636 29.4511C77.2832 29.718 76.7183 29.7902 76.4342 29.5826C76.1862 29.4014 76.165 28.9506 76.1261 23.0738L76.0844 16.7598H73.7897H71.495V23.1831ZM101.608 16.9487C101.608 17.0525 101.843 18.3037 102.13 19.729C102.417 21.1543 102.882 23.4882 103.164 24.9154C103.445 26.3426 103.856 28.4036 104.077 29.4954C104.466 31.4218 104.47 31.4864 104.202 31.6826C104.05 31.7938 103.638 31.8847 103.286 31.8847H102.647V33.0876V34.2903L105.28 34.2298C108.221 34.1623 108.9 33.9866 109.647 33.0981C110.43 32.1681 110.48 31.8699 112.003 18.984C112.085 18.2908 112.186 17.5049 112.228 17.2376L112.304 16.7515L110.183 16.7927L108.061 16.8339L108.024 17.5753C108.004 17.9831 107.89 19.618 107.772 21.2083C107.653 22.7986 107.511 24.7671 107.457 25.5827C107.351 27.1505 107.215 27.1505 107.035 25.5827C106.979 25.0933 106.872 24.326 106.798 23.8774C106.724 23.4288 106.565 22.3946 106.446 21.579C106.327 20.7634 106.116 19.3456 105.976 18.428L105.722 16.7598H103.665C102.098 16.7598 101.608 16.8047 101.608 16.9487ZM52.7193 19.3653C52.9215 19.5675 52.9523 20.2321 52.9523 24.3949C52.9523 27.0329 52.9118 29.2969 52.8623 29.4259C52.7559 29.703 52.0531 29.7402 51.7953 29.4825C51.6641 29.3514 51.6173 28.0284 51.6173 24.4514C51.6173 20.2373 51.648 19.5677 51.8503 19.3653C51.9786 19.2372 52.1741 19.1323 52.2848 19.1323C52.3955 19.1323 52.591 19.2372 52.7193 19.3653ZM64.8852 19.3674C65.092 19.5741 65.1156 20.202 65.0812 24.5943L65.0422 29.5863L64.5386 29.6343C64.2356 29.6633 63.9852 29.6042 63.9103 29.4861C63.8418 29.3781 63.7848 27.1092 63.7835 24.444C63.7816 20.2345 63.8118 19.5678 64.0143 19.3653C64.3108 19.069 64.5874 19.0696 64.8852 19.3674ZM89.7301 26.5836C89.724 27.5011 89.674 28.552 89.6188 28.919C89.5221 29.5623 89.4985 29.5879 88.962 29.6323C88.4779 29.6725 88.3861 29.6277 88.2573 29.289C88.0902 28.8495 88.0602 27.2735 88.2054 26.5483C88.3033 26.0589 89.2588 24.9154 89.5697 24.9154C89.6897 24.9154 89.7378 25.4148 89.7301 26.5836Z" fill="#4D5060"/>
<path fill-rule="evenodd" clip-rule="evenodd" d="M25.5148 0.164149C23.0609 0.441143 20.9923 1.13363 19.8778 2.05121L19.5069 2.35652L20.1745 2.12713C23.6841 0.921137 28.0907 0.859896 31.0326 1.97632C35.2211 3.56577 37.4683 7.3685 37.4444 12.8265C37.429 16.3591 36.718 18.6802 33.9014 24.3926C31.3582 29.5507 31.0776 30.3685 31.0776 32.6224C31.0776 34.1973 31.1099 34.3936 31.5008 35.1898C31.7335 35.6638 31.948 36.0277 31.9774 35.9983C32.0068 35.969 31.9279 35.6144 31.8019 35.2104C31.6319 34.6657 31.5905 34.0622 31.6414 32.8746C31.6792 31.9939 31.7522 31.2313 31.8036 31.1799C31.855 31.1286 32.2468 31.2261 32.674 31.3968C34.9447 32.3037 37.9499 32.6673 38.9137 32.1517C39.3027 31.9437 39.7484 30.8786 39.7523 30.1483C39.7563 29.4 39.9712 28.7903 40.3586 28.4296C40.7273 28.0861 40.7223 27.718 40.3418 27.2346L40.0379 26.8484L40.6014 26.5837L41.1648 26.3188L41.2077 25.0221L41.2505 23.7254H42.1051C42.5752 23.7254 43.0398 23.6453 43.1377 23.5474C43.5044 23.1809 43.3134 22.3824 42.4152 20.5276C41.2044 18.027 41.1021 17.4232 41.4656 14.9261C42.2891 9.26994 41.3927 5.76096 38.3255 2.63559C37.3652 1.65677 36.2661 0.887475 35.0775 0.362106C34.6271 0.162961 34.2171 0 34.1663 0C34.1158 0 34.5014 0.324297 35.0236 0.720511C35.8741 1.36599 36.8148 2.29736 37.5752 3.24652C37.9999 3.77678 38.671 5.18933 38.9367 6.11269C39.3006 7.37725 39.2509 10.112 38.851 10.8247C38.7654 10.9774 38.7247 10.8769 38.7216 10.5041C38.7192 10.2055 38.623 9.47146 38.5077 8.87299C37.5849 4.07824 34.049 0.826977 29.0272 0.155252C27.7252 -0.0189807 27.1222 -0.01735 25.5148 0.164149ZM0 4.60213V6.0903L1.44633 6.04789L2.89266 6.00548L2.93702 4.89513C3.01 3.06517 3.05183 3.11395 1.40643 3.11395H0V4.60213ZM20.1745 7.19175V9.34186H22.2512H24.328V7.19175V5.04164H22.2512H20.1745V7.19175ZM4.89527 7.49395V8.90813L6.26743 8.86557L7.63959 8.82287L7.68232 7.45124L7.72489 6.07962H6.31016H4.89527V7.49395ZM28.6299 7.92101C28.6299 8.93378 28.6704 9.86797 28.72 9.99698C28.7959 10.1948 29.122 10.2316 30.7968 10.2316H32.7835V8.15559V6.07962H30.7067H28.6299V7.92101ZM12.5261 7.75434C12.4856 7.85992 12.4709 8.94416 12.4936 10.1639L12.5349 12.3817L15.0196 12.4223L17.5043 12.4629V10.0127V7.56246H15.0521C13.1827 7.56246 12.5822 7.60813 12.5261 7.75434ZM26.2565 15.718V19.4251H30.0392H33.8219V15.718V12.011H30.0392H26.2565V15.718ZM7.26874 14.3835V15.8663H8.82633H10.3839V14.3835V12.9007H8.82633H7.26874V14.3835ZM17.0099 14.0376C16.9554 14.0918 16.9109 15.5265 16.9109 17.2256V20.3148H20.1003H23.2896V17.1267V13.9386H20.1992C18.4994 13.9386 17.0642 13.9831 17.0099 14.0376ZM24.4764 22.6874V24.6151H26.3306H28.1849V22.6874V20.7597H26.3306H24.4764V22.6874Z" fill="url(#paint0_linear)"/>
<defs>
<linearGradient id="paint0_linear" x1="-3.22711e-07" y1="18" x2="43.3136" y2="18" gradientUnits="userSpaceOnUse">
<stop stop-color="#A032C3"/>
<stop offset="1" stop-color="#436DE6"/>
</linearGradient>
</defs>
</svg>
