<svg width="18" height="18" viewBox="0 0 18 18" fill="none" xmlns="http://www.w3.org/2000/svg">
<path d="M8.99775 1.50638C4.90838 1.50638 1.58287 4.83188 1.58062 8.919C1.5795 10.5874 2.06887 11.8372 2.89012 13.1445L2.14087 15.8805L4.94663 15.1447C6.20325 15.8906 7.40362 16.3384 8.991 16.3384C13.077 16.3384 16.4059 13.0129 16.407 8.92462C16.4104 4.8285 13.0972 1.5075 8.99775 1.50638ZM13.3582 12.1073C13.1726 12.6281 12.2816 13.1029 11.8541 13.167C11.4705 13.2244 10.9845 13.248 10.4501 13.0793C10.1261 12.9769 9.711 12.8396 9.18 12.6101C6.94462 11.6449 5.48438 9.39375 5.373 9.24525C5.26162 9.09675 4.46287 8.037 4.46287 6.94012C4.46287 5.84325 5.03887 5.30437 5.2425 5.0805C5.44725 4.8555 5.688 4.79925 5.8365 4.79925L6.264 4.80712C6.40125 4.81387 6.58462 4.75537 6.76575 5.18962C6.95138 5.63625 7.39687 6.73312 7.45312 6.8445C7.50825 6.95587 7.5465 7.08637 7.47112 7.23487C7.39687 7.38337 7.35975 7.47675 7.24837 7.60612L6.91425 7.9965C6.80288 8.10787 6.687 8.22825 6.81637 8.451C6.94688 8.67375 7.3935 9.40387 8.05613 9.9945C8.90775 10.7539 9.6255 10.989 9.84825 11.1004C10.071 11.2118 10.2015 11.1938 10.3309 11.0441C10.4614 10.8956 10.8877 10.3939 11.0362 10.17C11.1847 9.94613 11.3332 9.98438 11.538 10.0586C11.7427 10.1329 12.8385 10.6718 13.0612 10.7843C13.284 10.8956 13.4325 10.9519 13.4887 11.0441C13.5439 11.1398 13.5439 11.5864 13.3582 12.1073ZM8.99438 17.8447C7.5015 17.8447 6.03113 17.4701 4.72837 16.7591L0 18L1.26562 13.3785C0.484875 12.0262 0.0742499 10.4918 0.0753749 8.919C0.0776249 4.0005 4.07812 0 8.99438 0C11.3805 0.001125 13.6204 0.930375 15.3045 2.61562C16.9886 4.30087 17.9156 6.543 17.9145 8.92575C17.9123 13.8443 13.9106 17.8447 8.99438 17.8447Z" fill="white"/>
</svg>
