<svg width="32" height="32" viewBox="0 0 32 32" fill="none" xmlns="http://www.w3.org/2000/svg">
<path d="M4.67368 28.9422C4.67829 29.0617 4.70678 29.1791 4.75747 29.2874C4.80815 29.3958 4.88001 29.4928 4.9688 29.573C5.13689 29.7265 5.35646 29.8114 5.58412 29.8108C5.59662 29.8108 5.60974 29.8108 5.62262 29.8101C5.86351 29.8009 6.0909 29.6965 6.25493 29.5198C6.41896 29.3431 6.50623 29.1086 6.49762 28.8677C6.49302 28.7482 6.46457 28.6309 6.41392 28.5225C6.36328 28.4142 6.29148 28.3171 6.20274 28.237C6.0699 28.1161 5.9044 28.037 5.7269 28.0097C5.5494 27.9823 5.36777 28.0078 5.20469 28.0831C5.04161 28.1583 4.9043 28.2799 4.80992 28.4327C4.71554 28.5855 4.66795 28.7627 4.67368 28.9422ZM5.5793 28.7492C5.6228 28.7472 5.66533 28.7624 5.69762 28.7917C5.71257 28.8052 5.7247 28.8215 5.73328 28.8398C5.74186 28.858 5.74674 28.8778 5.74762 28.8979C5.7484 28.9402 5.73239 28.981 5.7031 29.0115C5.6738 29.0419 5.63362 29.0595 5.59137 29.0604C5.56981 29.0615 5.54826 29.0583 5.52794 29.051C5.50763 29.0437 5.48895 29.0325 5.47299 29.018C5.45802 29.0045 5.44589 28.9881 5.43731 28.9699C5.42873 28.9516 5.42386 28.9319 5.42299 28.9117C5.4222 28.8695 5.43822 28.8286 5.46753 28.7981C5.49684 28.7677 5.53704 28.7501 5.5793 28.7492Z" fill="url(#paint0_linear)"/>
<path d="M20.1684 4.85464H13.147C13.0144 4.85478 12.8873 4.9075 12.7936 5.00124C12.6998 5.09498 12.6471 5.22208 12.647 5.35464V10.749C12.6471 10.8815 12.6999 11.0086 12.7936 11.1023C12.8873 11.1961 13.0144 11.2488 13.147 11.249H20.1684C20.3009 11.2488 20.428 11.1961 20.5218 11.1023C20.6155 11.0086 20.6682 10.8815 20.6684 10.749V5.35464C20.6682 5.22208 20.6155 5.09499 20.5218 5.00126C20.428 4.90752 20.3009 4.85479 20.1684 4.85464ZM19.9184 10.499H13.397V5.60464H19.9184V10.499Z" fill="url(#paint1_linear)"/>
<path d="M15.75 9.51699C15.8261 9.56074 15.9123 9.58377 16 9.58377C16.0877 9.58377 16.174 9.56074 16.25 9.51699L18.0705 8.46405C18.1464 8.42014 18.2094 8.35703 18.2532 8.28106C18.297 8.20509 18.3201 8.11894 18.3201 8.03124C18.3201 7.94354 18.297 7.85738 18.2532 7.78141C18.2094 7.70544 18.1464 7.64233 18.0705 7.59842L16.25 6.54505C16.174 6.50108 16.0878 6.4779 15.9999 6.47784C15.9121 6.47779 15.8259 6.50086 15.7498 6.54473C15.6737 6.5886 15.6106 6.65173 15.5667 6.72776C15.5227 6.8038 15.4996 6.89005 15.4996 6.97786V9.08411C15.4998 9.17187 15.523 9.25803 15.567 9.334C15.6109 9.40996 15.674 9.47306 15.75 9.51699ZM16.25 7.4113L17.3212 8.03086L16.25 8.65049V7.4113Z" fill="url(#paint2_linear)"/>
<path d="M20.1684 12.4492H13.3671C13.2676 12.4492 13.1722 12.4887 13.1019 12.559C13.0316 12.6293 12.9921 12.7247 12.9921 12.8242C12.9921 12.9236 13.0316 13.019 13.1019 13.0893C13.1722 13.1597 13.2676 13.1992 13.3671 13.1992H20.1684C20.2679 13.1992 20.3633 13.1597 20.4336 13.0893C20.5039 13.019 20.5434 12.9236 20.5434 12.8242C20.5434 12.7247 20.5039 12.6293 20.4336 12.559C20.3633 12.4887 20.2679 12.4492 20.1684 12.4492Z" fill="url(#paint3_linear)"/>
<path d="M20.1684 15.3604H13.3671C13.2676 15.3604 13.1722 15.3999 13.1019 15.4702C13.0316 15.5405 12.9921 15.6359 12.9921 15.7354C12.9921 15.8348 13.0316 15.9302 13.1019 16.0005C13.1722 16.0708 13.2676 16.1104 13.3671 16.1104H20.1684C20.2679 16.1104 20.3633 16.0708 20.4336 16.0005C20.5039 15.9302 20.5434 15.8348 20.5434 15.7354C20.5434 15.6359 20.5039 15.5405 20.4336 15.4702C20.3633 15.3999 20.2679 15.3604 20.1684 15.3604Z" fill="url(#paint4_linear)"/>
<path d="M20.1684 18.2717H13.3671C13.2676 18.2717 13.1722 18.3113 13.1019 18.3816C13.0316 18.4519 12.9921 18.5473 12.9921 18.6467C12.9921 18.7462 13.0316 18.8416 13.1019 18.9119C13.1722 18.9822 13.2676 19.0217 13.3671 19.0217H20.1684C20.2679 19.0217 20.3633 18.9822 20.4336 18.9119C20.5039 18.8416 20.5434 18.7462 20.5434 18.6467C20.5434 18.5473 20.5039 18.4519 20.4336 18.3816C20.3633 18.3113 20.2679 18.2717 20.1684 18.2717Z" fill="url(#paint5_linear)"/>
<path d="M20.1684 21.1828H13.3671C13.2676 21.1828 13.1722 21.2224 13.1019 21.2927C13.0316 21.363 12.9921 21.4584 12.9921 21.5578C12.9921 21.6573 13.0316 21.7527 13.1019 21.823C13.1722 21.8933 13.2676 21.9328 13.3671 21.9328H20.1684C20.2679 21.9328 20.3633 21.8933 20.4336 21.823C20.5039 21.7527 20.5434 21.6573 20.5434 21.5578C20.5434 21.4584 20.5039 21.363 20.4336 21.2927C20.3633 21.2224 20.2679 21.1828 20.1684 21.1828Z" fill="url(#paint6_linear)"/>
<path d="M24.7765 4.96805H21.8784C21.779 4.96805 21.6836 5.00756 21.6133 5.07788C21.5429 5.14821 21.5034 5.24359 21.5034 5.34305V7.5243C21.5034 7.62375 21.5429 7.71914 21.6133 7.78946C21.6836 7.85979 21.779 7.8993 21.8784 7.8993H24.7765C24.8759 7.8993 24.9713 7.85979 25.0416 7.78946C25.112 7.71914 25.1515 7.62375 25.1515 7.5243V5.34305C25.1515 5.24359 25.112 5.14821 25.0416 5.07788C24.9713 5.00756 24.8759 4.96805 24.7765 4.96805ZM24.4015 7.1493H22.2534V5.71805H24.4015V7.1493Z" fill="url(#paint7_linear)"/>
<path d="M24.7765 9.69679H21.8784C21.779 9.69679 21.6836 9.7363 21.6133 9.80663C21.5429 9.87695 21.5034 9.97234 21.5034 10.0718V12.253C21.5034 12.3525 21.5429 12.4479 21.6133 12.5182C21.6836 12.5885 21.779 12.628 21.8784 12.628H24.7765C24.8759 12.628 24.9713 12.5885 25.0416 12.5182C25.112 12.4479 25.1515 12.3525 25.1515 12.253V10.0718C25.1515 9.97234 25.112 9.87695 25.0416 9.80663C24.9713 9.7363 24.8759 9.69679 24.7765 9.69679ZM24.4015 11.878H22.2534V10.4468H24.4015V11.878Z" fill="url(#paint8_linear)"/>
<path d="M24.7765 14.4253H21.8784C21.779 14.4253 21.6836 14.4648 21.6133 14.5352C21.5429 14.6055 21.5034 14.7009 21.5034 14.8003V16.9816C21.5034 17.081 21.5429 17.1764 21.6133 17.2467C21.6836 17.3171 21.779 17.3566 21.8784 17.3566H24.7765C24.8759 17.3566 24.9713 17.3171 25.0416 17.2467C25.112 17.1764 25.1515 17.081 25.1515 16.9816V14.8003C25.1515 14.7009 25.112 14.6055 25.0416 14.5352C24.9713 14.4648 24.8759 14.4253 24.7765 14.4253ZM24.4015 16.6066H22.2534V15.1753H24.4015V16.6066Z" fill="url(#paint9_linear)"/>
<path d="M24.7765 19.1541H21.8784C21.779 19.1541 21.6836 19.1936 21.6133 19.2639C21.5429 19.3342 21.5034 19.4296 21.5034 19.5291V21.7103C21.5034 21.8098 21.5429 21.9052 21.6133 21.9755C21.6836 22.0458 21.779 22.0853 21.8784 22.0853H24.7765C24.8759 22.0853 24.9713 22.0458 25.0416 21.9755C25.112 21.9052 25.1515 21.8098 25.1515 21.7103V19.5291C25.1515 19.4296 25.112 19.3342 25.0416 19.2639C24.9713 19.1936 24.8759 19.1541 24.7765 19.1541ZM24.4015 21.3353H22.2534V19.9041H24.4015V21.3353Z" fill="url(#paint10_linear)"/>
<path d="M26.7155 0.625H10.628C10.0717 0.626076 9.53851 0.847772 9.14543 1.24146C8.75234 1.63514 8.53145 2.16867 8.53122 2.725V9.37869L8.4966 12.3295L8.47822 12.3198L5.35622 18.2479C5.35266 18.2546 5.34935 18.2614 5.34622 18.2683C4.95913 19.1297 4.86129 20.0933 5.06735 21.0149L5.81935 24.3C5.82116 24.3079 5.82322 24.3158 5.8256 24.3235C5.88716 24.5291 5.86771 24.7505 5.77122 24.9422L4.84816 26.5223L4.01004 26.2875C4.00741 26.2868 4.00472 26.286 4.0021 26.2854C3.90357 26.2601 3.80049 26.2582 3.7011 26.2798C3.60171 26.3015 3.50875 26.3461 3.42966 26.41C3.35057 26.474 3.28753 26.5556 3.24558 26.6483C3.20362 26.7409 3.18392 26.8421 3.18803 26.9438L3.32497 30.3026C3.33168 30.4625 3.39685 30.6145 3.50813 30.7296C3.61941 30.8447 3.76907 30.915 3.92872 30.9271L10.2807 31.3729C10.2978 31.3743 10.315 31.375 10.332 31.375C10.42 31.375 10.507 31.3572 10.5879 31.3227C10.6688 31.2882 10.7419 31.2377 10.8028 31.1742C10.8637 31.1107 10.9111 31.0356 10.9422 30.9534C10.9733 30.8711 10.9875 30.7834 10.9839 30.6956L10.8972 28.5629C10.8922 28.4226 10.8417 28.2876 10.7534 28.1784C10.6652 28.0691 10.5438 27.9915 10.4076 27.9571L9.70085 27.7755L26.7158 27.7687C27.2721 27.7676 27.8053 27.5459 28.1983 27.1522C28.5914 26.7585 28.8122 26.225 28.8125 25.6688V2.725C28.8122 2.16865 28.5913 1.6351 28.1982 1.24141C27.8051 0.847724 27.2719 0.626043 26.7155 0.625ZM6.42435 25.3109C6.42778 25.3051 6.43103 25.2991 6.4341 25.2931C6.62083 24.9315 6.66157 24.5121 6.54791 24.1213L5.79878 20.8486C5.62941 20.0899 5.70885 19.2969 6.02535 18.587L8.47785 13.9302L8.44066 17.0994C8.34215 17.0893 8.24304 17.0862 8.1441 17.0903C8.09346 17.0924 8.04376 17.1047 7.99802 17.1265C7.95227 17.1483 7.91143 17.1792 7.87794 17.2172C7.84446 17.2553 7.81903 17.2997 7.80321 17.3479C7.78738 17.396 7.78147 17.4469 7.78585 17.4974L7.94835 19.3724C7.99515 19.9136 7.99186 20.458 7.93853 20.9987C7.93311 21.048 7.93751 21.0979 7.95149 21.1455C7.96547 21.193 7.98876 21.2374 8.01999 21.2759C8.05122 21.3144 8.08979 21.3464 8.13346 21.3699C8.17712 21.3934 8.22502 21.408 8.27437 21.4129C8.32373 21.4178 8.37356 21.4128 8.42099 21.3983C8.46841 21.3838 8.51249 21.36 8.55067 21.3284C8.58884 21.2967 8.62036 21.2578 8.64339 21.2139C8.66642 21.17 8.68051 21.1219 8.68485 21.0725C8.74274 20.4858 8.74632 19.895 8.69553 19.3076L8.57222 17.8841C8.60847 17.8939 8.64437 17.9055 8.67991 17.9186C8.91462 18.0039 9.11874 18.157 9.26644 18.3583C9.41413 18.5597 9.49876 18.8004 9.5096 19.0499L9.59922 21.2524C9.61831 21.7046 9.73996 22.1466 9.95497 22.5449L10.0755 22.7674C10.3639 23.2971 10.499 23.8968 10.4654 24.499C10.4318 25.1012 10.231 25.6821 9.88541 26.1765L9.42347 26.7327C9.2152 26.9842 9.05773 27.2736 8.95978 27.5851L5.59997 26.7219L6.42435 25.3109ZM10.2298 30.6176L4.07047 30.1853L3.94285 27.0474L4.9246 27.3224C4.92722 27.3232 4.92985 27.3239 4.93253 27.3245L10.1504 28.6652L10.2298 30.6176ZM28.0625 25.6688C28.0625 26.0263 27.9206 26.3692 27.6681 26.6223C27.4156 26.8754 27.0729 27.018 26.7154 27.0187L10.1555 27.025L10.4726 26.6429C10.4788 26.635 10.4855 26.6268 10.4913 26.6184C10.9209 26.0096 11.1714 25.2928 11.2145 24.549C11.2575 23.8052 11.0915 23.0643 10.7351 22.41L10.6145 22.1875C10.4538 21.8899 10.3629 21.5596 10.3486 21.2216L10.259 19.0191C10.2445 18.6679 10.1378 18.3267 9.94985 18.0298C9.76186 17.7328 9.49913 17.4905 9.18797 17.3271L9.28122 9.38306V2.725C9.28122 2.36748 9.42304 2.02455 9.67557 1.77146C9.92809 1.51838 10.2707 1.37579 10.6282 1.375H26.7157C27.0732 1.37586 27.4157 1.51847 27.6682 1.77155C27.9207 2.02463 28.0625 2.36752 28.0625 2.725V25.6688Z" fill="url(#paint11_linear)"/>
<path d="M19.5953 25.0842H17.7485C17.6491 25.0842 17.5537 25.1237 17.4834 25.194C17.413 25.2644 17.3735 25.3597 17.3735 25.4592C17.3735 25.5587 17.413 25.654 17.4834 25.7244C17.5537 25.7947 17.6491 25.8342 17.7485 25.8342H19.5953C19.6947 25.8342 19.7901 25.7947 19.8604 25.7244C19.9308 25.654 19.9703 25.5587 19.9703 25.4592C19.9703 25.3597 19.9308 25.2644 19.8604 25.194C19.7901 25.1237 19.6947 25.0842 19.5953 25.0842Z" fill="url(#paint12_linear)"/>
<path d="M25.2296 3.47138H12.1143C11.8491 3.47168 11.595 3.57713 11.4075 3.7646C11.22 3.95208 11.1146 4.20626 11.1143 4.47138V22.8776C11.1145 23.1428 11.22 23.397 11.4075 23.5844C11.5949 23.7719 11.8491 23.8774 12.1143 23.8776H25.2296C25.4948 23.8774 25.749 23.7719 25.9364 23.5844C26.1239 23.397 26.2294 23.1428 26.2296 22.8776V4.47138C26.2293 4.20626 26.1239 3.95208 25.9364 3.7646C25.7489 3.57713 25.4948 3.47168 25.2296 3.47138ZM25.4796 22.8776C25.4796 22.9439 25.4533 23.0075 25.4064 23.0544C25.3595 23.1013 25.2959 23.1276 25.2296 23.1276H12.1143C12.048 23.1276 11.9844 23.1013 11.9375 23.0544C11.8906 23.0075 11.8643 22.9439 11.8643 22.8776V4.47138C11.8643 4.40508 11.8906 4.34149 11.9375 4.29461C11.9844 4.24772 12.048 4.22138 12.1143 4.22138H25.2296C25.2959 4.22138 25.3595 4.24772 25.4064 4.29461C25.4533 4.34149 25.4796 4.40508 25.4796 4.47138V22.8776Z" fill="url(#paint13_linear)"/>
<defs>
<linearGradient id="paint0_linear" x1="3.1875" y1="16" x2="28.8125" y2="16" gradientUnits="userSpaceOnUse">
<stop stop-color="#A032C3"/>
<stop offset="1" stop-color="#436DE6"/>
</linearGradient>
<linearGradient id="paint1_linear" x1="3.1875" y1="16" x2="28.8125" y2="16" gradientUnits="userSpaceOnUse">
<stop stop-color="#A032C3"/>
<stop offset="1" stop-color="#436DE6"/>
</linearGradient>
<linearGradient id="paint2_linear" x1="3.1875" y1="16" x2="28.8125" y2="16" gradientUnits="userSpaceOnUse">
<stop stop-color="#A032C3"/>
<stop offset="1" stop-color="#436DE6"/>
</linearGradient>
<linearGradient id="paint3_linear" x1="3.1875" y1="16" x2="28.8125" y2="16" gradientUnits="userSpaceOnUse">
<stop stop-color="#A032C3"/>
<stop offset="1" stop-color="#436DE6"/>
</linearGradient>
<linearGradient id="paint4_linear" x1="3.1875" y1="16" x2="28.8125" y2="16" gradientUnits="userSpaceOnUse">
<stop stop-color="#A032C3"/>
<stop offset="1" stop-color="#436DE6"/>
</linearGradient>
<linearGradient id="paint5_linear" x1="3.1875" y1="16" x2="28.8125" y2="16" gradientUnits="userSpaceOnUse">
<stop stop-color="#A032C3"/>
<stop offset="1" stop-color="#436DE6"/>
</linearGradient>
<linearGradient id="paint6_linear" x1="3.1875" y1="16" x2="28.8125" y2="16" gradientUnits="userSpaceOnUse">
<stop stop-color="#A032C3"/>
<stop offset="1" stop-color="#436DE6"/>
</linearGradient>
<linearGradient id="paint7_linear" x1="3.1875" y1="16" x2="28.8125" y2="16" gradientUnits="userSpaceOnUse">
<stop stop-color="#A032C3"/>
<stop offset="1" stop-color="#436DE6"/>
</linearGradient>
<linearGradient id="paint8_linear" x1="3.1875" y1="16" x2="28.8125" y2="16" gradientUnits="userSpaceOnUse">
<stop stop-color="#A032C3"/>
<stop offset="1" stop-color="#436DE6"/>
</linearGradient>
<linearGradient id="paint9_linear" x1="3.1875" y1="16" x2="28.8125" y2="16" gradientUnits="userSpaceOnUse">
<stop stop-color="#A032C3"/>
<stop offset="1" stop-color="#436DE6"/>
</linearGradient>
<linearGradient id="paint10_linear" x1="3.1875" y1="16" x2="28.8125" y2="16" gradientUnits="userSpaceOnUse">
<stop stop-color="#A032C3"/>
<stop offset="1" stop-color="#436DE6"/>
</linearGradient>
<linearGradient id="paint11_linear" x1="3.1875" y1="16" x2="28.8125" y2="16" gradientUnits="userSpaceOnUse">
<stop stop-color="#A032C3"/>
<stop offset="1" stop-color="#436DE6"/>
</linearGradient>
<linearGradient id="paint12_linear" x1="3.1875" y1="16" x2="28.8125" y2="16" gradientUnits="userSpaceOnUse">
<stop stop-color="#A032C3"/>
<stop offset="1" stop-color="#436DE6"/>
</linearGradient>
<linearGradient id="paint13_linear" x1="3.1875" y1="16" x2="28.8125" y2="16" gradientUnits="userSpaceOnUse">
<stop stop-color="#A032C3"/>
<stop offset="1" stop-color="#436DE6"/>
</linearGradient>
</defs>
</svg>
