<svg width="32" height="32" viewBox="0 0 32 32" fill="none" xmlns="http://www.w3.org/2000/svg">
<path d="M27.8696 2.93743H25.75V1.17105C25.7517 1.12365 25.7437 1.07639 25.7264 1.03222C25.7091 0.988047 25.6829 0.947901 25.6495 0.914273C25.616 0.880645 25.576 0.854252 25.5319 0.836732C25.4878 0.819212 25.4406 0.810939 25.3932 0.812426H6.12063C5.8107 0.810847 5.5035 0.870366 5.21658 0.987581C4.92967 1.1048 4.66867 1.27741 4.44851 1.49555C4.22835 1.7137 4.05333 1.97309 3.93348 2.25891C3.81363 2.54473 3.75128 2.85137 3.75 3.1613L3.75537 26.9824C3.75417 27.2686 3.80946 27.5523 3.91808 27.8171C4.0267 28.0819 4.18651 28.3227 4.38836 28.5256C4.59021 28.7286 4.83013 28.8897 5.09436 28.9998C5.3586 29.1098 5.64195 29.1666 5.92819 29.167L19.9375 29.1647V30.8288C19.9407 30.9016 19.9641 30.972 20.0052 31.0322C20.0463 31.0924 20.1033 31.1399 20.1699 31.1695C20.2365 31.199 20.3101 31.2094 20.3822 31.1994C20.4544 31.1894 20.5224 31.1594 20.5784 31.1129L21.7239 30.1296L22.8677 31.1129C22.9361 31.1716 23.0232 31.2038 23.1133 31.2038C23.1691 31.2038 23.2244 31.1922 23.2754 31.1697C23.3414 31.1401 23.3975 31.0923 23.4373 31.0319C23.4771 30.9715 23.4988 30.9011 23.5 30.8288V29.1874H25.3932C25.6003 29.1874 25.75 28.9967 25.75 28.7896V24.1249H27.0735C27.7192 24.1249 28.25 23.5704 28.25 22.9249V3.32849C28.2494 3.2268 28.2094 3.1293 28.1385 3.05641C28.0676 2.98352 27.9713 2.94088 27.8696 2.93743ZM19.9375 28.4146H5.92819C5.73966 28.4156 5.5528 28.3793 5.37842 28.3076C5.20404 28.2359 5.0456 28.1304 4.91225 27.9971C4.77891 27.8639 4.67332 27.7055 4.60159 27.5311C4.52985 27.3568 4.4934 27.1699 4.49433 26.9814C4.49527 26.7929 4.53357 26.6064 4.60703 26.4328C4.68049 26.2591 4.78764 26.1018 4.9223 25.9698C5.05695 25.8379 5.21643 25.7339 5.39151 25.664C5.56659 25.5941 5.7538 25.5595 5.94231 25.5624H19.9375V28.4146ZM19.9375 20.3749H18.026L17.5148 16.2455L17.7023 15.2978L18.3079 15.9536C18.3539 16.0034 18.4126 16.0399 18.4776 16.059C18.5427 16.0781 18.6118 16.0792 18.6774 16.0622C18.7431 16.0452 18.8029 16.0107 18.8505 15.9624C18.8981 15.9141 18.9317 15.8538 18.9478 15.7879L19.4107 13.8851C19.5869 13.9601 19.7626 14.0274 19.9377 14.0879L19.9375 20.3749ZM16.445 16.4999H16.7861L17.2703 20.3749H15.89L16.445 16.4999ZM16.2316 14.8749H17.0184L16.8628 15.7499H16.3875L16.2316 14.8749ZM15.9601 14.1249C15.6563 13.7052 15.4951 13.1992 15.5 12.6812V12.5361C15.8494 12.7107 16.2347 12.8013 16.6254 12.8008C17.016 12.8003 17.4011 12.7086 17.75 12.5331V12.8143C17.7603 13.2903 17.6019 13.7546 17.3027 14.1249H15.9601ZM12.4375 16.7567C12.338 16.7567 12.2427 16.7962 12.1723 16.8666C12.102 16.9369 12.0625 17.0323 12.0625 17.1317V20.3749H10.6875V16.8181C10.6823 16.2356 10.8739 15.6684 11.2312 15.2083C11.5885 14.7482 12.0906 14.4222 12.6562 14.283C13.0589 14.1866 13.4546 14.0637 13.841 13.9151L14.3106 15.7905C14.327 15.8561 14.3608 15.9161 14.4085 15.964C14.4562 16.012 14.516 16.0461 14.5815 16.0628C14.6471 16.0794 14.7159 16.078 14.7807 16.0587C14.8456 16.0394 14.9039 16.0028 14.9496 15.953L15.5483 15.3007L15.7223 16.2177L15.1326 20.3749H12.8125V17.1317C12.8125 17.0323 12.773 16.9369 12.7027 16.8666C12.6323 16.7962 12.537 16.7567 12.4375 16.7567ZM16.625 12.0505C15.5764 12.0505 14.75 11.1864 14.75 10.1244V8.70836C14.75 7.6463 15.5764 6.7823 16.625 6.7823C17.6736 6.7823 18.5 7.6463 18.5 8.70836V10.1244C18.5 11.1865 17.6736 12.0505 16.625 12.0505ZM18.4648 13.4147L18.5618 13.4686C18.6142 13.4977 18.6667 13.5256 18.7192 13.5536L18.3842 14.9312L17.9708 14.4835C18.2112 14.1674 18.3798 13.8027 18.4648 13.4147ZM14.8245 13.4598C14.9175 13.8226 15.0754 14.1657 15.2906 14.4723L14.8677 14.9329L14.5348 13.6065L14.5481 13.6002L14.8245 13.4598ZM19.9375 13.2911C19.5844 13.1562 19.2413 12.9964 18.9107 12.813L18.5 12.5933V11.9829C19 11.5011 19.25 10.8459 19.25 10.1244V8.70836C19.25 7.2328 18.0872 6.0323 16.625 6.0323C15.1628 6.0323 14 7.2328 14 8.70836V10.1244C14 10.849 14.25 11.5067 14.75 11.9891V12.6691L14.2209 12.9316C13.6688 13.2061 13.0866 13.415 12.4859 13.5542C11.756 13.7324 11.1074 14.1514 10.645 14.7436C10.1825 15.3358 9.93329 16.0667 9.9375 16.8181V20.7631C9.93673 20.8112 9.94571 20.859 9.96389 20.9035C9.98208 20.948 10.0091 20.9884 10.0433 21.0222C10.0775 21.056 10.1182 21.0826 10.163 21.1002C10.2077 21.1179 10.2556 21.1263 10.3037 21.1249H19.9375V24.8124H8.125V7.37493C8.125 7.27547 8.08549 7.18009 8.01517 7.10976C7.94484 7.03943 7.84946 6.99993 7.75 6.99993C7.65054 6.99993 7.55516 7.03943 7.48484 7.10976C7.41451 7.18009 7.375 7.27547 7.375 7.37493V24.8124H5.94231C5.39256 24.8124 4.875 24.9952 4.5 25.3312V3.1613C4.50117 2.94983 4.54404 2.74067 4.62617 2.54579C4.7083 2.35092 4.82806 2.17416 4.9786 2.02564C5.12914 1.87712 5.3075 1.75975 5.50347 1.68027C5.69944 1.60078 5.90916 1.56074 6.12063 1.56243H7.375V4.87493C7.375 4.97438 7.41451 5.06976 7.48484 5.14009C7.55516 5.21042 7.65054 5.24993 7.75 5.24993C7.84946 5.24993 7.94484 5.21042 8.01517 5.14009C8.08549 5.06976 8.125 4.97438 8.125 4.87493V1.56243H19.9375V13.2911ZM22.75 30.011L21.9776 29.3505C21.9063 29.2918 21.8168 29.2596 21.7244 29.2596C21.6321 29.2596 21.5426 29.2918 21.4713 29.3505L20.6875 30.011V1.56243H22.75V30.011ZM25 28.4374H23.5V25.5624H25V28.4374ZM25 24.8124H23.5V1.56243H25V24.8124ZM27.5 22.9249C27.5 23.1571 27.3057 23.3749 27.0735 23.3749H25.75V18.9999H27.0735C27.2202 18.9962 27.3648 18.9649 27.5 18.9079V22.9249ZM27.5 17.8166C27.4991 17.9301 27.454 18.0387 27.3744 18.1196C27.2948 18.2004 27.1869 18.2472 27.0735 18.2499H25.75V13.8749H27.0735C27.2191 13.8768 27.3638 13.8513 27.5 13.7999V17.8166ZM27.5 12.7084C27.4984 12.8201 27.4526 12.9266 27.3727 13.0047C27.2928 13.0827 27.1852 13.126 27.0735 13.1249H25.75V8.74993H27.0735C27.2181 8.75706 27.3627 8.7372 27.5 8.69136V12.7084ZM27.5 7.60011C27.4989 7.65457 27.4869 7.70826 27.4647 7.75802C27.4426 7.80778 27.4107 7.85261 27.3709 7.88988C27.3312 7.92714 27.2844 7.95609 27.2333 7.97502C27.1823 7.99395 27.1279 8.00248 27.0735 8.00011H25.75V3.68743H27.5V7.60011Z" fill="url(#paint0_linear)"/>
<path d="M5.625 8.90508C5.52554 8.90508 5.43016 8.94459 5.35984 9.01492C5.28951 9.08524 5.25 9.18063 5.25 9.28008V16.3734C5.25 16.4729 5.28951 16.5682 5.35984 16.6386C5.43016 16.7089 5.52554 16.7484 5.625 16.7484C5.72446 16.7484 5.81984 16.7089 5.89016 16.6386C5.96049 16.5682 6 16.4729 6 16.3734V9.28008C6 9.18063 5.96049 9.08524 5.89016 9.01492C5.81984 8.94459 5.72446 8.90508 5.625 8.90508Z" fill="url(#paint1_linear)"/>
<path d="M5.625 4.98417C5.52554 4.98417 5.43016 5.02368 5.35984 5.094C5.28951 5.16433 5.25 5.25971 5.25 5.35917V7.89754C5.25 7.997 5.28951 8.09238 5.35984 8.16271C5.43016 8.23304 5.52554 8.27254 5.625 8.27254C5.72446 8.27254 5.81984 8.23304 5.89016 8.16271C5.96049 8.09238 6 7.997 6 7.89754V5.35917C6 5.25971 5.96049 5.16433 5.89016 5.094C5.81984 5.02368 5.72446 4.98417 5.625 4.98417Z" fill="url(#paint2_linear)"/>
<path d="M5.625 3.23417C5.52554 3.23417 5.43016 3.27368 5.35984 3.344C5.28951 3.41433 5.25 3.50971 5.25 3.60917V3.96004C5.25 4.0595 5.28951 4.15488 5.35984 4.22521C5.43016 4.29553 5.52554 4.33504 5.625 4.33504C5.72446 4.33504 5.81984 4.29553 5.89016 4.22521C5.96049 4.15488 6 4.0595 6 3.96004V3.60917C6 3.50971 5.96049 3.41433 5.89016 3.344C5.81984 3.27368 5.72446 3.23417 5.625 3.23417Z" fill="url(#paint3_linear)"/>
<defs>
<linearGradient id="paint0_linear" x1="3.75" y1="16.008" x2="28.25" y2="16.008" gradientUnits="userSpaceOnUse">
<stop stop-color="#A032C3"/>
<stop offset="1" stop-color="#436DE6"/>
</linearGradient>
<linearGradient id="paint1_linear" x1="3.75" y1="16.008" x2="28.25" y2="16.008" gradientUnits="userSpaceOnUse">
<stop stop-color="#A032C3"/>
<stop offset="1" stop-color="#436DE6"/>
</linearGradient>
<linearGradient id="paint2_linear" x1="3.75" y1="16.008" x2="28.25" y2="16.008" gradientUnits="userSpaceOnUse">
<stop stop-color="#A032C3"/>
<stop offset="1" stop-color="#436DE6"/>
</linearGradient>
<linearGradient id="paint3_linear" x1="3.75" y1="16.008" x2="28.25" y2="16.008" gradientUnits="userSpaceOnUse">
<stop stop-color="#A032C3"/>
<stop offset="1" stop-color="#436DE6"/>
</linearGradient>
</defs>
</svg>
