<svg width="32" height="32" viewBox="0 0 32 32" fill="none" xmlns="http://www.w3.org/2000/svg">
<path d="M22.7207 11.7982C23.2284 11.7974 23.7244 11.6461 24.1461 11.3635C24.5677 11.0809 24.8962 10.6796 25.0899 10.2103C25.2836 9.74111 25.3338 9.22499 25.2343 8.72721C25.1347 8.22943 24.8899 7.77232 24.5306 7.41366C24.1714 7.055 23.7139 6.81088 23.2159 6.71215C22.718 6.61342 22.2019 6.66451 21.733 6.85896C21.2641 7.05342 20.8634 7.38251 20.5814 7.80465C20.2995 8.22679 20.149 8.72304 20.149 9.23068C20.1503 9.91196 20.4218 10.5649 20.904 11.0462C21.3861 11.5276 22.0395 11.798 22.7207 11.7982ZM22.7207 7.41311C23.08 7.41394 23.431 7.52124 23.7294 7.72146C24.0277 7.92168 24.26 8.20583 24.397 8.53802C24.5339 8.87021 24.5693 9.23553 24.4987 9.58783C24.4281 9.94012 24.2546 10.2636 24.0003 10.5174C23.7459 10.7711 23.4221 10.9438 23.0696 11.0136C22.7171 11.0834 22.3519 11.0472 22.02 10.9095C21.6882 10.7718 21.4046 10.5388 21.205 10.24C21.0055 9.94122 20.899 9.58998 20.899 9.23068C20.9001 8.74824 21.0925 8.28595 21.4341 7.94521C21.7756 7.60447 22.2383 7.41311 22.7207 7.41311Z" fill="url(#paint0_linear)"/>
<path d="M28.9276 2.1875H3.07238C2.42405 2.18771 1.80228 2.44508 1.34347 2.90314C0.884659 3.3612 0.626274 3.98255 0.625 4.63088V21.4403C0.626274 22.0886 0.884659 22.71 1.34347 23.168C1.80228 23.6261 2.42405 23.8835 3.07238 23.8837H11.6606V29.0625H9.63056C9.53111 29.0625 9.43572 29.102 9.3654 29.1723C9.29507 29.2427 9.25556 29.338 9.25556 29.4375C9.25556 29.537 9.29507 29.6323 9.3654 29.7027C9.43572 29.773 9.53111 29.8125 9.63056 29.8125H22.7424C22.8418 29.8125 22.9372 29.773 23.0075 29.7027C23.0779 29.6323 23.1174 29.537 23.1174 29.4375C23.1174 29.338 23.0779 29.2427 23.0075 29.1723C22.9372 29.102 22.8418 29.0625 22.7424 29.0625H20.3394V23.8837H28.9276C29.576 23.8835 30.1977 23.6261 30.6565 23.168C31.1153 22.71 31.3737 22.0886 31.375 21.4403V4.63088C31.3737 3.98255 31.1153 3.3612 30.6565 2.90314C30.1977 2.44508 29.576 2.18771 28.9276 2.1875ZM3.07238 2.9375H28.9276C29.3771 2.93748 29.8082 3.11576 30.1265 3.43322C30.4447 3.75067 30.624 4.18139 30.625 4.63088V19.1768H28.02L26.8013 14.573C26.6539 13.9591 26.3045 13.4126 25.8091 13.0212C25.3138 12.6298 24.7013 12.4162 24.07 12.4148H18.8062L15.0578 10.9861C15.0543 10.9847 15.0508 10.9834 15.0472 10.9823C14.8626 10.9186 14.666 10.8973 14.472 10.9197C14.2779 10.9422 14.0914 11.0079 13.9262 11.1121C13.8622 11.1519 13.8015 11.1969 13.7449 11.2467L11.4411 8.72906C11.3737 8.65683 11.2805 8.61413 11.1818 8.61024C11.083 8.60635 10.9868 8.64159 10.9139 8.70828C10.841 8.77498 10.7973 8.86775 10.7925 8.96644C10.7876 9.06513 10.8218 9.16175 10.8878 9.23531L13.3375 11.9125C13.3244 11.9642 13.3144 12.0167 13.3077 12.0697C13.3077 12.0721 13.3071 12.0746 13.3068 12.0769C13.2691 12.3873 13.3435 12.701 13.5165 12.9614C13.6895 13.2218 13.9498 13.4119 14.2506 13.4975L17.7955 14.7739C18.257 14.9404 18.7394 15.0422 19.2289 15.0765L19.2296 19.1771H1.375V4.63088C1.37604 4.18139 1.55533 3.75067 1.87354 3.43322C2.19175 3.11576 2.62289 2.93748 3.07238 2.9375ZM26.2615 19.1768L25.712 16.9909C25.6776 16.8542 25.5945 16.7348 25.4782 16.6552C25.362 16.5755 25.2206 16.5411 25.0808 16.5584C24.9409 16.5757 24.8122 16.6436 24.7189 16.7492C24.6256 16.8548 24.5741 16.9908 24.5741 17.1318V19.1768H19.9793L19.9786 14.7143C19.9786 14.6149 19.9391 14.5195 19.8687 14.4491C19.7984 14.3788 19.703 14.3393 19.6036 14.3393C19.0737 14.3396 18.5478 14.2478 18.0493 14.068L14.4901 12.7864C14.4796 12.7826 14.469 12.7793 14.4583 12.7765C14.3271 12.7405 14.2134 12.658 14.1387 12.5444C14.0639 12.4307 14.0331 12.2937 14.052 12.159C14.0601 12.0977 14.0785 12.0383 14.1064 11.9831L14.1077 11.9801C14.1567 11.8848 14.2308 11.8049 14.3221 11.7488C14.3918 11.7043 14.4705 11.6758 14.5526 11.6655C14.6347 11.6551 14.7181 11.6631 14.7967 11.6889L18.6036 13.1399C18.6463 13.1561 18.6915 13.1644 18.7372 13.1644H24.0702C24.5341 13.1662 24.984 13.324 25.3474 13.6124C25.7107 13.9008 25.9665 14.3031 26.0736 14.7546C26.0741 14.7568 26.0747 14.7591 26.0753 14.7613L27.2441 19.1765L26.2615 19.1768ZM25.4881 19.1768H25.3241V18.5239L25.4881 19.1768ZM19.5894 29.0625H12.4106V23.8837H19.5894V29.0625ZM28.9276 23.1337H3.07238C2.62289 23.1337 2.19175 22.9554 1.87354 22.638C1.55533 22.3205 1.37604 21.8898 1.375 21.4403V19.9268H30.625V21.4403C30.624 21.8898 30.4447 22.3205 30.1265 22.638C29.8082 22.9554 29.3771 23.1337 28.9276 23.1337Z" fill="url(#paint1_linear)"/>
<path d="M11.536 6.53178H16.7785C16.878 6.53178 16.9734 6.49228 17.0437 6.42195C17.114 6.35162 17.1535 6.25624 17.1535 6.15678C17.1535 6.05733 17.114 5.96194 17.0437 5.89162C16.9734 5.82129 16.878 5.78178 16.7785 5.78178H11.536C11.4366 5.78178 11.3412 5.82129 11.2709 5.89162C11.2005 5.96194 11.161 6.05733 11.161 6.15678C11.161 6.25624 11.2005 6.35162 11.2709 6.42195C11.3412 6.49228 11.4366 6.53178 11.536 6.53178Z" fill="url(#paint2_linear)"/>
<path d="M10.1938 6.53178H10.2136C10.313 6.53178 10.4084 6.49228 10.4788 6.42195C10.5491 6.35162 10.5886 6.25624 10.5886 6.15678C10.5886 6.05733 10.5491 5.96194 10.4788 5.89162C10.4084 5.82129 10.313 5.78178 10.2136 5.78178H10.1938C10.0943 5.78178 9.99894 5.82129 9.92861 5.89162C9.85829 5.96194 9.81878 6.05733 9.81878 6.15678C9.81878 6.25624 9.85829 6.35162 9.92861 6.42195C9.99894 6.49228 10.0943 6.53178 10.1938 6.53178Z" fill="url(#paint3_linear)"/>
<path d="M7.95676 6.53178H8.83176C8.93122 6.53178 9.0266 6.49228 9.09693 6.42195C9.16726 6.35162 9.20676 6.25624 9.20676 6.15678C9.20676 6.05733 9.16726 5.96194 9.09693 5.89162C9.0266 5.82129 8.93122 5.78178 8.83176 5.78178H7.95676C7.85731 5.78178 7.76193 5.82129 7.6916 5.89162C7.62127 5.96194 7.58176 6.05733 7.58176 6.15678C7.58176 6.25624 7.62127 6.35162 7.6916 6.42195C7.76193 6.49228 7.85731 6.53178 7.95676 6.53178Z" fill="url(#paint4_linear)"/>
<path d="M4.02853 6.53178H6.46385C6.5633 6.53178 6.65869 6.49228 6.72901 6.42195C6.79934 6.35162 6.83885 6.25624 6.83885 6.15678C6.83885 6.05733 6.79934 5.96194 6.72901 5.89162C6.65869 5.82129 6.5633 5.78178 6.46385 5.78178H4.02853C3.97929 5.78178 3.93052 5.79148 3.88503 5.81033C3.83953 5.82917 3.79819 5.8568 3.76337 5.89162C3.72855 5.92644 3.70092 5.96778 3.68208 6.01328C3.66323 6.05877 3.65353 6.10754 3.65353 6.15678C3.65353 6.20603 3.66323 6.25479 3.68208 6.30029C3.70092 6.34579 3.72855 6.38713 3.76337 6.42195C3.79819 6.45677 3.83953 6.48439 3.88503 6.50324C3.93052 6.52208 3.97929 6.53178 4.02853 6.53178Z" fill="url(#paint5_linear)"/>
<path d="M16.7786 9.15186H16.7743C16.6745 9.15242 16.5789 9.19254 16.5086 9.26344C16.4383 9.33433 16.399 9.4302 16.3993 9.53004C16.3996 9.62987 16.4395 9.72552 16.5101 9.79602C16.5808 9.86651 16.6766 9.9061 16.7764 9.9061C16.8763 9.9061 16.972 9.86651 17.0427 9.79602C17.1134 9.72552 17.1533 9.62987 17.1535 9.53004C17.1538 9.4302 17.1145 9.33433 17.0442 9.26344C16.9739 9.19254 16.8784 9.15242 16.7786 9.15186Z" fill="url(#paint6_linear)"/>
<path d="M15.3486 9.15186H13.4916C13.3921 9.15186 13.2967 9.19136 13.2264 9.26169C13.1561 9.33202 13.1166 9.4274 13.1166 9.52686C13.1166 9.62631 13.1561 9.72169 13.2264 9.79202C13.2967 9.86235 13.3921 9.90186 13.4916 9.90186H15.3486C15.448 9.90186 15.5434 9.86235 15.6137 9.79202C15.6841 9.72169 15.7236 9.62631 15.7236 9.52686C15.7236 9.4274 15.6841 9.33202 15.6137 9.26169C15.5434 9.19136 15.448 9.15186 15.3486 9.15186Z" fill="url(#paint7_linear)"/>
<path d="M4.02853 9.90186H9.6176C9.71705 9.90186 9.81244 9.86235 9.88276 9.79202C9.95309 9.72169 9.9926 9.62631 9.9926 9.52686C9.9926 9.4274 9.95309 9.33202 9.88276 9.26169C9.81244 9.19136 9.71705 9.15186 9.6176 9.15186H4.02853C3.92908 9.15186 3.83369 9.19136 3.76337 9.26169C3.69304 9.33202 3.65353 9.4274 3.65353 9.52686C3.65353 9.62631 3.69304 9.72169 3.76337 9.79202C3.83369 9.86235 3.92908 9.90186 4.02853 9.90186Z" fill="url(#paint8_linear)"/>
<path d="M11.651 13.4818H12.6361C12.7356 13.4818 12.8309 13.4423 12.9013 13.372C12.9716 13.3017 13.0111 13.2063 13.0111 13.1068C13.0111 13.0074 12.9716 12.912 12.9013 12.8417C12.8309 12.7713 12.7356 12.7318 12.6361 12.7318H11.651C11.5515 12.7318 11.4561 12.7713 11.3858 12.8417C11.3155 12.912 11.276 13.0074 11.276 13.1068C11.276 13.2063 11.3155 13.3017 11.3858 13.372C11.4561 13.4423 11.5515 13.4818 11.651 13.4818Z" fill="url(#paint9_linear)"/>
<path d="M10.2067 13.1068C10.2067 13.0074 10.1672 12.912 10.0969 12.8417C10.0266 12.7713 9.93121 12.7318 9.83175 12.7318H6.05956C5.96011 12.7318 5.86472 12.7713 5.7944 12.8417C5.72407 12.912 5.68456 13.0074 5.68456 13.1068C5.68456 13.2063 5.72407 13.3017 5.7944 13.372C5.86472 13.4423 5.96011 13.4818 6.05956 13.4818H9.83175C9.93121 13.4818 10.0266 13.4423 10.0969 13.372C10.1672 13.3017 10.2067 13.2063 10.2067 13.1068Z" fill="url(#paint10_linear)"/>
<path d="M4.02853 13.4818H4.63378C4.73324 13.4818 4.82862 13.4423 4.89895 13.372C4.96928 13.3017 5.00878 13.2063 5.00878 13.1068C5.00878 13.0074 4.96928 12.912 4.89895 12.8417C4.82862 12.7713 4.73324 12.7318 4.63378 12.7318H4.02853C3.92908 12.7318 3.83369 12.7713 3.76337 12.8417C3.69304 12.912 3.65353 13.0074 3.65353 13.1068C3.65353 13.2063 3.69304 13.3017 3.76337 13.372C3.83369 13.4423 3.92908 13.4818 4.02853 13.4818Z" fill="url(#paint11_linear)"/>
<path d="M15.8364 16.7907H16.7786C16.878 16.7907 16.9734 16.7512 17.0437 16.6809C17.1141 16.6105 17.1536 16.5152 17.1536 16.4157C17.1536 16.3163 17.1141 16.2209 17.0437 16.1505C16.9734 16.0802 16.878 16.0407 16.7786 16.0407H15.8364C15.737 16.0407 15.6416 16.0802 15.5713 16.1505C15.5009 16.2209 15.4614 16.3163 15.4614 16.4157C15.4614 16.5152 15.5009 16.6105 15.5713 16.6809C15.6416 16.7512 15.737 16.7907 15.8364 16.7907Z" fill="url(#paint12_linear)"/>
<path d="M14.396 16.7907H14.4106C14.5101 16.7907 14.6054 16.7512 14.6758 16.6809C14.7461 16.6105 14.7856 16.5152 14.7856 16.4157C14.7856 16.3163 14.7461 16.2209 14.6758 16.1505C14.6054 16.0802 14.5101 16.0407 14.4106 16.0407H14.396C14.2966 16.0407 14.2012 16.0802 14.1309 16.1505C14.0605 16.2209 14.021 16.3163 14.021 16.4157C14.021 16.5152 14.0605 16.6105 14.1309 16.6809C14.2012 16.7512 14.2966 16.7907 14.396 16.7907Z" fill="url(#paint13_linear)"/>
<path d="M6.94965 16.4157C6.94965 16.5152 6.98916 16.6105 7.05949 16.6809C7.12982 16.7512 7.2252 16.7907 7.32465 16.7907H13.0596C13.159 16.7907 13.2544 16.7512 13.3248 16.6809C13.3951 16.6105 13.4346 16.5152 13.4346 16.4157C13.4346 16.3163 13.3951 16.2209 13.3248 16.1505C13.2544 16.0802 13.159 16.0407 13.0596 16.0407H7.32465C7.2252 16.0407 7.12982 16.0802 7.05949 16.1505C6.98916 16.2209 6.94965 16.3163 6.94965 16.4157Z" fill="url(#paint14_linear)"/>
<path d="M4.02853 16.7907H5.86485C5.9643 16.7907 6.05969 16.7512 6.13001 16.6809C6.20034 16.6105 6.23985 16.5152 6.23985 16.4157C6.23985 16.3163 6.20034 16.2209 6.13001 16.1505C6.05969 16.0802 5.9643 16.0407 5.86485 16.0407H4.02853C3.92908 16.0407 3.83369 16.0802 3.76337 16.1505C3.69304 16.2209 3.65353 16.3163 3.65353 16.4157C3.65353 16.5152 3.69304 16.6105 3.76337 16.6809C3.83369 16.7512 3.92908 16.7907 4.02853 16.7907Z" fill="url(#paint15_linear)"/>
<defs>
<linearGradient id="paint0_linear" x1="0.625" y1="16" x2="31.375" y2="16" gradientUnits="userSpaceOnUse">
<stop stop-color="#A032C3"/>
<stop offset="1" stop-color="#436DE6"/>
</linearGradient>
<linearGradient id="paint1_linear" x1="0.625" y1="16" x2="31.375" y2="16" gradientUnits="userSpaceOnUse">
<stop stop-color="#A032C3"/>
<stop offset="1" stop-color="#436DE6"/>
</linearGradient>
<linearGradient id="paint2_linear" x1="0.625" y1="16" x2="31.375" y2="16" gradientUnits="userSpaceOnUse">
<stop stop-color="#A032C3"/>
<stop offset="1" stop-color="#436DE6"/>
</linearGradient>
<linearGradient id="paint3_linear" x1="0.625" y1="16" x2="31.375" y2="16" gradientUnits="userSpaceOnUse">
<stop stop-color="#A032C3"/>
<stop offset="1" stop-color="#436DE6"/>
</linearGradient>
<linearGradient id="paint4_linear" x1="0.625" y1="16" x2="31.375" y2="16" gradientUnits="userSpaceOnUse">
<stop stop-color="#A032C3"/>
<stop offset="1" stop-color="#436DE6"/>
</linearGradient>
<linearGradient id="paint5_linear" x1="0.625" y1="16" x2="31.375" y2="16" gradientUnits="userSpaceOnUse">
<stop stop-color="#A032C3"/>
<stop offset="1" stop-color="#436DE6"/>
</linearGradient>
<linearGradient id="paint6_linear" x1="0.625" y1="16" x2="31.375" y2="16" gradientUnits="userSpaceOnUse">
<stop stop-color="#A032C3"/>
<stop offset="1" stop-color="#436DE6"/>
</linearGradient>
<linearGradient id="paint7_linear" x1="0.625" y1="16" x2="31.375" y2="16" gradientUnits="userSpaceOnUse">
<stop stop-color="#A032C3"/>
<stop offset="1" stop-color="#436DE6"/>
</linearGradient>
<linearGradient id="paint8_linear" x1="0.625" y1="16" x2="31.375" y2="16" gradientUnits="userSpaceOnUse">
<stop stop-color="#A032C3"/>
<stop offset="1" stop-color="#436DE6"/>
</linearGradient>
<linearGradient id="paint9_linear" x1="0.625" y1="16" x2="31.375" y2="16" gradientUnits="userSpaceOnUse">
<stop stop-color="#A032C3"/>
<stop offset="1" stop-color="#436DE6"/>
</linearGradient>
<linearGradient id="paint10_linear" x1="0.625" y1="16" x2="31.375" y2="16" gradientUnits="userSpaceOnUse">
<stop stop-color="#A032C3"/>
<stop offset="1" stop-color="#436DE6"/>
</linearGradient>
<linearGradient id="paint11_linear" x1="0.625" y1="16" x2="31.375" y2="16" gradientUnits="userSpaceOnUse">
<stop stop-color="#A032C3"/>
<stop offset="1" stop-color="#436DE6"/>
</linearGradient>
<linearGradient id="paint12_linear" x1="0.625" y1="16" x2="31.375" y2="16" gradientUnits="userSpaceOnUse">
<stop stop-color="#A032C3"/>
<stop offset="1" stop-color="#436DE6"/>
</linearGradient>
<linearGradient id="paint13_linear" x1="0.625" y1="16" x2="31.375" y2="16" gradientUnits="userSpaceOnUse">
<stop stop-color="#A032C3"/>
<stop offset="1" stop-color="#436DE6"/>
</linearGradient>
<linearGradient id="paint14_linear" x1="0.625" y1="16" x2="31.375" y2="16" gradientUnits="userSpaceOnUse">
<stop stop-color="#A032C3"/>
<stop offset="1" stop-color="#436DE6"/>
</linearGradient>
<linearGradient id="paint15_linear" x1="0.625" y1="16" x2="31.375" y2="16" gradientUnits="userSpaceOnUse">
<stop stop-color="#A032C3"/>
<stop offset="1" stop-color="#436DE6"/>
</linearGradient>
</defs>
</svg>
